<?xml version="1.0" standalone="no"?>
<!DOCTYPE svg PUBLIC "-//W3C//DTD SVG 20010904//EN"
 "http://www.w3.org/TR/2001/REC-SVG-20010904/DTD/svg10.dtd">
<svg version="1.0" xmlns="http://www.w3.org/2000/svg"
 width="996.000000pt" height="996.000000pt" viewBox="0 0 996.000000 996.000000"
 preserveAspectRatio="xMidYMid meet">
<metadata>
Created by potrace 1.11, written by Peter Selinger 2001-2013
</metadata>
<g transform="translate(0.000000,996.000000) scale(0.100000,-0.100000)"
fill="#000000" stroke="none">
<path d="M2100 8753 c0 -87 0 -201 1 -253 1 -100 1 -101 -4 -140 -2 -14 0 -37
4 -52 5 -17 4 -28 -2 -28 -6 0 -6 -7 0 -19 6 -10 7 -21 4 -25 -8 -8 -7 -91 1
-105 4 -6 3 -11 -3 -11 -7 0 -7 -8 -1 -24 5 -13 6 -26 3 -29 -8 -9 -9 -107 0
-107 5 0 5 -5 2 -11 -9 -14 -9 -144 -1 -158 4 -6 4 -11 -1 -11 -9 0 -8 -113 1
-129 4 -6 4 -11 -1 -11 -9 0 -8 -102 1 -125 3 -8 1 -15 -4 -15 -9 0 -6 -32 5
-50 3 -6 3 -10 -2 -10 -10 0 -8 -153 1 -169 4 -6 3 -11 -1 -11 -13 0 -10 -83
2 -92 7 -5 7 -8 0 -8 -10 0 -11 -369 -1 -396 3 -8 2 -14 -2 -14 -4 0 -6 -60
-4 -132 5 -228 4 -259 -2 -265 -3 -3 -1 -14 5 -24 5 -11 6 -19 1 -19 -9 0 -6
-95 4 -111 3 -5 1 -9 -4 -9 -10 0 -8 -92 2 -109 4 -6 3 -11 -1 -11 -10 0 -8
-134 2 -150 3 -5 3 -10 -2 -10 -9 0 -8 -244 1 -266 3 -8 2 -14 -2 -14 -4 0 -7
-22 -7 -50 0 -27 3 -50 7 -50 4 0 5 -6 3 -12 -9 -27 -13 -108 -5 -108 5 0 5
-13 0 -30 -5 -19 -5 -30 1 -30 6 0 7 -5 3 -11 -11 -18 -10 -329 1 -329 7 0 7
-3 0 -8 -14 -10 -17 -32 -4 -32 7 0 8 -5 3 -12 -5 -7 -8 -83 -7 -168 3 -195 3
-165 0 -303 -1 -64 2 -117 7 -117 5 0 5 -5 0 -12 -5 -7 -8 -92 -7 -188 3 -216
3 -184 0 -323 -1 -64 2 -117 6 -117 5 0 5 -5 1 -11 -10 -17 -11 -369 0 -369 5
0 3 -6 -3 -14 -9 -11 -9 -20 -2 -34 6 -11 8 -22 5 -24 -8 -9 -10 -188 -1 -188
4 0 5 -5 1 -12 -10 -16 -11 -368 -1 -368 5 0 5 -6 1 -12 -10 -16 -12 -218 -2
-218 4 0 3 -12 0 -27 -4 -16 -7 -177 -6 -360 1 -240 -2 -331 -10 -327 -6 3 -3
-1 7 -9 11 -9 14 -18 8 -21 -10 -7 -11 -46 0 -46 3 0 3 -21 -1 -48 -4 -26 -4
-57 1 -70 5 -12 5 -22 1 -22 -9 0 -7 -174 2 -188 6 -11 31 -10 42 0 3 4 16 3
28 -1 11 -4 68 -7 126 -6 85 1 107 -2 118 -14 11 -14 12 -15 7 0 -5 12 1 15
27 14 18 0 39 -5 47 -9 10 -6 12 -5 7 2 -4 7 -1 12 8 12 9 0 16 -6 16 -12 0
-9 4 -8 10 2 8 13 13 13 31 2 11 -8 18 -9 14 -3 -3 6 1 11 10 11 10 0 13 -5 9
-12 -5 -7 -3 -8 7 -2 22 13 110 13 102 0 -4 -6 0 -6 9 1 8 7 18 10 21 6 4 -3
14 0 24 8 9 8 14 9 10 3 -4 -7 0 -15 9 -18 8 -3 13 -2 10 2 -2 4 19 8 48 8 43
-1 53 -4 49 -16 -4 -13 -3 -13 9 0 11 13 47 15 208 15 107 -1 201 -4 208 -8 6
-5 12 -4 12 0 0 7 38 9 84 4 5 -1 3 -8 -4 -16 -9 -11 -16 -12 -30 -3 -10 7
-25 8 -36 3 -11 -5 -22 -7 -26 -7 -5 1 -8 -2 -8 -8 0 -13 6 -13 30 2 16 10 24
10 41 0 18 -11 23 -11 35 5 7 10 14 21 14 25 0 7 58 2 84 -8 11 -4 17 -4 14 2
-7 11 177 12 188 2 4 -4 2 -14 -4 -21 -7 -8 -9 -17 -5 -20 3 -4 0 -15 -8 -24
-7 -10 -9 -15 -5 -11 5 4 15 0 22 -10 12 -16 14 -16 31 1 10 10 14 17 8 16
-22 -4 -29 2 -15 12 12 9 12 10 -3 5 -12 -4 -17 -2 -14 6 2 7 15 13 29 12 18
-1 25 3 21 12 -3 8 -9 14 -15 14 -5 0 -6 -5 -2 -11 4 -7 1 -10 -7 -7 -8 3 -15
11 -17 19 -2 11 10 14 50 14 40 0 53 -4 53 -15 0 -8 -7 -14 -17 -12 -30 5 -30
-18 1 -55 31 -37 41 -60 21 -48 -5 3 -10 1 -10 -4 0 -14 17 -14 26 0 3 6 1 16
-5 22 -17 17 -13 31 4 17 9 -8 15 -8 15 -2 0 6 -6 12 -12 15 -7 2 -10 8 -6 12
4 4 15 2 25 -6 14 -12 16 -12 8 0 -6 11 -4 13 8 8 11 -4 14 -2 10 9 -4 11 -9
12 -19 3 -9 -8 -14 -8 -14 -1 0 6 4 14 10 17 13 8 13 25 -1 25 -5 0 -8 -4 -5
-9 3 -4 -3 -16 -14 -26 -11 -10 -20 -13 -20 -7 0 6 4 13 9 16 5 3 7 14 5 24
-4 14 2 17 36 18 41 1 51 -11 28 -34 -9 -9 -9 -15 1 -24 10 -11 12 -9 9 6 -1
10 2 21 8 23 22 8 9 -42 -14 -53 -36 -18 -46 -30 -31 -39 7 -5 10 -4 6 2 -10
16 42 36 59 22 18 -15 18 -29 0 -29 -7 0 -19 -7 -26 -15 -10 -12 -15 -12 -38
3 -14 9 -23 11 -19 5 5 -8 3 -13 -5 -13 -7 0 -2 -7 11 -16 16 -12 20 -19 12
-27 -6 -6 -11 -15 -11 -21 0 -5 6 -1 14 10 13 17 12 21 -1 37 -9 9 -11 17 -5
17 6 0 14 -5 17 -10 5 -8 11 -8 19 -1 9 7 16 7 24 -1 9 -9 15 -9 25 1 10 10 9
11 -4 6 -10 -4 -20 -2 -24 4 -3 6 0 11 7 11 7 0 20 4 27 9 12 8 11 13 -10 29
-13 11 -20 24 -16 28 4 5 13 2 18 -6 9 -12 10 -12 5 3 -3 10 -1 27 4 38 7 13
7 19 0 19 -5 0 -10 -7 -10 -15 0 -8 -5 -15 -11 -15 -5 0 -8 4 -4 9 3 5 1 12
-5 16 -23 14 -6 20 57 18 36 -1 72 -4 79 -7 7 -3 15 0 18 7 3 9 5 9 5 0 1 -7
6 -13 12 -13 5 0 8 4 5 9 -4 5 1 8 9 7 23 -3 29 -15 11 -22 -9 -3 -14 -10 -11
-14 3 -4 -3 -14 -12 -21 -14 -12 -15 -11 -9 9 5 14 3 22 -4 22 -6 0 -8 -4 -5
-10 3 -5 1 -10 -4 -10 -6 0 -11 5 -11 11 0 5 -4 7 -10 4 -5 -3 -10 -1 -10 4 0
6 -5 11 -11 11 -8 0 -8 -5 1 -15 17 -20 1 -19 -21 1 -18 16 -44 11 -34 -7 4
-5 1 -9 -4 -9 -6 0 -11 -5 -11 -11 0 -8 5 -8 15 1 11 9 15 9 15 1 0 -6 -7 -14
-15 -17 -8 -4 -15 -10 -15 -16 0 -5 5 -6 10 -3 6 3 10 1 10 -4 0 -6 5 -11 11
-11 8 0 9 4 0 13 -11 14 -5 27 11 27 5 0 6 -6 2 -12 -4 -7 5 -2 20 12 l27 25
45 -48 c24 -26 44 -44 44 -40 0 4 -12 20 -27 35 -15 15 -22 28 -15 28 6 0 14
-4 17 -10 3 -5 20 -8 38 -7 18 2 39 0 47 -4 13 -6 16 0 17 27 1 29 -2 34 -18
29 -13 -4 -18 -2 -16 7 2 7 2 10 0 6 -7 -13 -23 -9 -23 5 0 15 53 18 66 4 5
-4 9 -27 9 -49 0 -43 18 -62 29 -32 5 14 4 15 -8 5 -11 -9 -13 -7 -13 14 0 26
12 34 20 13 2 -7 4 3 4 22 0 19 -2 29 -4 23 -6 -17 -23 -17 -23 0 0 7 11 13
24 13 14 0 22 -4 20 -8 -3 -4 0 -8 5 -8 6 0 11 6 11 13 0 6 6 1 13 -13 15 -28
13 -40 -5 -22 -15 15 -28 16 -28 2 0 -6 5 -9 11 -8 6 2 14 -3 16 -10 3 -8 -1
-10 -11 -6 -9 3 -16 1 -16 -6 0 -6 4 -9 9 -5 14 8 40 -34 34 -54 -4 -14 -3
-14 6 -1 7 11 6 21 -3 35 -12 18 -11 24 5 44 11 13 19 28 18 35 0 7 -2 7 -6
-1 -6 -17 -23 -17 -23 0 0 18 58 16 70 -3 10 -15 4 -30 -11 -30 -6 0 -7 5 -4
10 12 19 -7 10 -25 -12 -18 -22 -17 -48 2 -48 6 0 5 6 -2 15 -8 9 -9 15 -2 15
6 0 13 -4 16 -9 3 -5 25 -8 48 -7 52 3 76 -8 88 -37 7 -17 8 -12 6 21 -3 35
-1 42 13 37 9 -2 21 -1 26 3 14 10 17 32 5 32 -5 0 -10 -7 -10 -15 0 -8 -5
-15 -11 -15 -6 0 -9 7 -5 15 8 23 -4 18 -26 -10 -11 -14 -24 -25 -30 -25 -7 0
-1 12 13 27 13 14 19 23 13 20 -7 -4 -15 0 -18 9 -4 9 -9 14 -13 11 -3 -4 0
-13 7 -22 15 -18 0 -20 -19 -2 -11 10 -12 9 -6 -2 5 -9 3 -12 -6 -9 -8 3 -13
14 -12 24 1 10 0 13 -3 7 -8 -17 -24 -16 -24 1 0 9 12 13 43 11 24 -1 49 -5
55 -9 5 -3 13 0 15 6 4 10 6 10 6 1 1 -7 6 -13 12 -13 5 0 8 4 5 8 -3 5 1 9 9
9 8 0 12 -4 9 -9 -3 -4 2 -8 11 -8 9 0 14 4 10 9 -6 10 27 7 44 -3 5 -4 12 0
14 6 4 10 6 10 6 1 1 -7 6 -13 12 -13 5 0 8 3 6 8 -3 4 42 7 99 7 57 0 104 -3
104 -8 0 -4 -4 -5 -10 -2 -9 6 -14 -8 -11 -27 1 -10 -13 -10 -22 -1 -4 3 -1
13 6 22 11 14 10 14 -6 2 -17 -13 -17 -15 5 -39 15 -16 18 -23 8 -20 -8 2 -24
19 -35 36 -24 38 -29 39 -43 7 -7 -15 -8 -25 -2 -25 6 0 10 7 10 15 0 8 5 15
10 15 13 0 13 -23 -1 -37 -11 -11 -49 -6 -49 6 0 4 7 18 16 31 l16 25 -21 -24
c-26 -28 -26 -40 -3 -48 9 -4 22 -14 29 -22 10 -14 13 -13 30 8 14 17 22 21
27 13 4 -7 3 -12 -2 -12 -6 0 -13 -7 -16 -15 -4 -10 7 -6 28 10 19 14 36 22
38 18 3 -4 3 -2 2 5 -5 18 29 11 38 -8 6 -11 7 -10 5 5 -2 11 -9 19 -15 17 -7
-1 -12 5 -12 13 0 8 -4 15 -10 15 -5 0 -6 8 -3 17 4 11 8 12 11 5 2 -7 8 -12
13 -12 6 0 8 3 6 8 -6 9 146 8 161 -1 5 -4 13 -1 15 5 4 10 6 10 6 1 1 -7 6
-13 12 -13 5 0 8 4 5 9 -4 5 2 8 11 7 10 -2 18 -9 18 -16 0 -18 -64 -18 -74
-1 -11 17 -23 -12 -15 -34 5 -12 9 -12 30 2 22 14 26 14 48 0 20 -13 25 -14
29 -3 3 8 3 22 1 33 -5 17 3 18 108 18 93 0 113 -3 113 -15 0 -9 -8 -14 -20
-12 -18 2 -17 1 5 -17 24 -19 25 -19 38 0 19 28 35 23 17 -5 -8 -13 -12 -31
-9 -40 9 -24 26 2 18 27 -5 14 1 13 32 -8 61 -42 72 -31 24 25 -31 36 -41 61
-16 41 8 -7 16 -8 18 -4 3 4 4 3 2 -3 -1 -6 8 -23 21 -36 13 -14 21 -29 17
-34 -4 -4 -1 -4 6 0 11 6 7 15 -14 37 -29 30 -30 28 21 44 9 2 15 -2 15 -10 0
-8 5 -15 11 -15 5 0 7 -4 4 -10 -3 -5 -2 -10 2 -10 5 0 14 10 22 23 13 19 12
21 -1 10 -14 -12 -28 -8 -28 6 0 5 450 6 475 1 6 -1 -1 -6 -15 -10 -24 -8 -24
-8 -2 -9 12 -1 25 5 28 13 4 11 31 14 73 7 2 -1 0 -7 -5 -14 -5 -7 -2 -6 6 3
11 11 37 15 110 15 52 0 98 -4 102 -10 5 -6 8 -5 8 3 0 6 4 12 10 12 5 0 7 -8
4 -17 -5 -16 -4 -16 8 -2 13 16 93 20 116 5 7 -4 12 -3 12 1 0 5 19 8 43 7 23
0 50 3 59 8 9 4 19 4 22 -1 3 -5 32 -8 63 -7 41 1 62 -3 71 -14 11 -13 11 -13
7 1 -5 12 3 15 45 15 37 1 50 -3 46 -12 -3 -8 0 -11 9 -7 8 3 12 10 9 15 -4 6
-1 8 7 6 8 -3 13 -11 11 -17 -1 -7 2 -10 8 -6 6 3 8 10 6 14 -3 4 13 8 36 8
33 2 39 -1 34 -15 -5 -15 -4 -15 6 -2 15 17 46 20 67 6 9 -6 12 -5 8 1 -4 7
25 10 88 8 64 -1 95 1 95 9 0 7 3 7 8 1 4 -6 108 -10 275 -10 171 0 267 4 267
10 0 7 3 7 8 0 4 -5 16 -10 27 -10 16 0 21 8 25 45 3 25 2 64 -1 88 -3 23 -2
45 2 48 4 2 6 13 4 22 -4 23 -8 85 -5 92 1 3 2 116 3 253 1 159 -2 247 -8 247
-7 0 -7 3 0 8 12 8 13 102 1 120 -4 7 -3 12 1 12 5 0 8 20 8 45 0 25 -4 45 -8
45 -5 0 -5 6 0 13 11 18 12 36 2 43 -5 3 -6 10 -2 17 11 18 9 257 -2 257 -7 0
-7 3 0 8 13 9 16 42 3 42 -5 0 -6 5 -2 12 10 15 11 155 3 190 -4 14 -5 29 -1
32 10 11 8 156 -3 156 -7 0 -7 3 0 8 6 4 10 48 10 97 0 50 -4 93 -10 97 -7 5
-7 8 0 8 6 0 10 22 10 50 0 27 -4 50 -8 50 -5 0 -5 6 -1 12 11 17 11 119 1
141 -4 9 -4 17 0 17 4 0 8 34 8 75 0 41 -4 75 -9 75 -5 0 -4 6 1 12 10 15 10
129 -1 146 -4 7 -4 12 1 12 4 0 8 34 8 75 0 41 -4 75 -9 75 -5 0 -4 6 2 13 12
14 12 19 2 64 -4 18 -5 34 -2 37 8 9 8 86 -1 86 -5 0 -5 6 -1 12 11 17 11 108
0 108 -5 0 -4 6 1 13 10 14 10 128 -1 145 -4 7 -4 12 1 12 4 0 8 34 8 75 0 41
-4 75 -8 75 -5 0 -5 6 0 13 8 13 6 174 -3 189 -3 4 -1 8 4 8 10 0 7 74 -3 90
-3 5 -1 11 5 15 7 4 7 12 0 26 -6 10 -7 19 -3 19 9 0 8 242 -1 265 -3 8 -1 15
4 15 5 0 7 12 4 26 -6 35 -7 38 -5 44 7 18 4 90 -3 90 -5 0 -4 6 1 13 5 6 7
35 6 62 -4 59 -4 53 -3 177 1 54 -1 102 -5 108 -3 5 -2 10 3 10 10 0 7 74 -3
90 -3 5 -1 11 5 15 7 4 7 12 0 26 -6 10 -7 19 -3 19 9 0 8 242 -1 265 -3 8 -1
15 4 15 8 0 4 45 -6 61 -2 4 0 10 6 14 7 4 7 12 0 26 -7 12 -7 19 -1 19 5 0 8
12 5 26 -6 35 -7 38 -5 44 6 14 4 118 -2 132 -3 10 -2 20 2 22 9 6 7 49 -4 65
-3 6 -3 11 2 11 12 0 10 144 -2 152 -7 5 -7 8 0 8 6 0 10 18 10 40 0 22 -4 40
-8 40 -5 0 -5 6 -1 12 9 15 9 110 1 133 -4 8 -2 15 4 15 6 0 7 6 1 16 -5 9 -6
31 -2 49 4 18 4 39 -1 46 -4 7 -5 18 -1 24 9 14 9 26 1 51 -4 12 -5 24 -2 27
5 6 8 190 3 212 -1 6 -2 13 -1 18 1 4 2 36 2 72 0 36 -1 68 -2 73 -1 4 -1 11
1 17 4 24 1 486 -4 494 -4 5 -2 13 4 16 8 5 8 11 1 19 -6 7 -8 15 -5 18 6 7 6
41 4 376 -1 129 -5 222 -11 222 -5 0 -9 -4 -9 -9 0 -7 -80 -116 -133 -181 -7
-8 -23 -31 -37 -50 -13 -19 -33 -44 -43 -55 -10 -11 -37 -46 -59 -77 -23 -32
-45 -58 -49 -58 -5 0 -9 -6 -9 -13 0 -8 -11 -24 -25 -37 -14 -13 -25 -28 -25
-33 0 -5 -11 -20 -25 -33 -14 -13 -25 -26 -25 -29 0 -3 -25 -38 -56 -78 -30
-39 -74 -97 -97 -127 -22 -30 -43 -57 -47 -60 -3 -3 -21 -26 -39 -52 -19 -26
-38 -45 -44 -41 -6 3 -7 1 -3 -5 3 -6 -1 -17 -9 -25 -8 -9 -15 -18 -15 -21 0
-6 -21 -32 -57 -74 -13 -14 -23 -28 -23 -32 0 -3 -8 -15 -18 -26 -9 -10 -31
-38 -48 -61 -17 -24 -35 -39 -39 -35 -5 4 -5 2 -2 -5 4 -6 -6 -25 -22 -41 -17
-16 -27 -32 -24 -36 3 -3 -2 -8 -11 -12 -9 -3 -16 -12 -16 -19 0 -7 -3 -15 -7
-17 -11 -4 -163 -206 -170 -224 -4 -11 -9 -12 -18 -4 -10 9 -12 7 -9 -7 3 -10
-6 -29 -19 -43 -13 -14 -37 -45 -52 -68 -15 -23 -31 -42 -36 -42 -4 0 -10 -8
-13 -17 -4 -10 -19 -32 -34 -50 -15 -17 -43 -54 -62 -82 -19 -27 -38 -50 -42
-51 -5 0 -8 -7 -8 -15 0 -8 -4 -15 -9 -15 -4 0 -27 -27 -50 -60 -23 -33 -46
-60 -52 -60 -5 0 -8 -4 -6 -9 2 -8 -37 -62 -75 -102 -9 -9 -14 -20 -10 -23 3
-3 0 -6 -6 -6 -6 0 -17 -11 -24 -24 -22 -41 -98 -136 -108 -136 -6 0 -9 -6 -7
-12 1 -7 -6 -12 -16 -12 -14 2 -15 -1 -7 -11 9 -11 7 -17 -9 -27 -12 -7 -21
-18 -21 -25 0 -6 -3 -13 -8 -15 -4 -1 -36 -42 -72 -90 -35 -49 -68 -88 -72
-88 -4 0 -8 -6 -8 -14 0 -8 -3 -16 -7 -18 -5 -1 -51 -60 -103 -129 -52 -70
-99 -124 -104 -121 -5 3 -6 0 -2 -6 4 -6 -1 -20 -11 -31 -10 -11 -28 -31 -40
-45 -12 -13 -19 -26 -16 -29 3 -3 -4 -12 -16 -19 -12 -7 -21 -17 -21 -21 0 -9
-65 -95 -86 -112 -6 -6 -14 -20 -18 -32 -4 -13 -12 -22 -19 -20 -6 1 -11 -3
-12 -10 0 -6 -9 -22 -20 -35 -11 -13 -39 -49 -61 -80 -28 -39 -44 -54 -51 -47
-7 7 -9 2 -5 -17 3 -19 1 -25 -7 -20 -6 4 -11 1 -11 -9 0 -8 -7 -18 -15 -21
-8 -4 -15 -11 -15 -18 0 -6 -18 -30 -39 -53 -22 -23 -38 -43 -35 -45 2 -2 -10
-19 -26 -36 -16 -18 -27 -32 -25 -32 4 0 -3 -9 -47 -62 -16 -19 -17 -19 -52
19 -19 21 -36 42 -36 46 0 4 -11 20 -25 35 -16 17 -23 34 -19 47 3 13 2 16 -3
7 -7 -9 -15 -6 -31 13 -12 14 -22 30 -22 35 0 6 -4 10 -8 10 -4 0 -19 18 -32
40 -14 22 -28 40 -32 40 -5 0 -8 4 -8 10 0 5 -16 26 -35 47 -19 20 -32 40 -29
45 3 4 1 8 -4 8 -6 0 -44 46 -86 103 -41 56 -81 109 -89 117 -7 8 -29 36 -47
63 -18 26 -37 47 -42 47 -4 0 -8 7 -8 15 0 8 -4 15 -10 15 -5 0 -10 6 -10 14
0 8 -7 17 -16 20 -8 3 -12 10 -9 16 3 5 1 10 -5 10 -6 0 -8 5 -4 12 4 6 3 8
-3 5 -6 -4 -16 0 -23 8 -7 8 -9 15 -6 15 4 0 -3 11 -16 24 -13 13 -30 33 -38
46 -16 24 -57 77 -75 96 -6 6 -28 36 -49 67 -22 32 -43 57 -48 57 -4 0 -8 7
-8 15 0 8 -4 15 -8 15 -4 0 -15 12 -24 28 -9 15 -25 37 -35 49 -46 54 -53 64
-53 72 0 5 -4 11 -8 13 -5 2 -51 59 -103 128 -52 69 -97 127 -101 128 -5 2 -8
13 -8 24 0 12 -3 18 -6 15 -8 -7 -38 24 -62 66 -9 15 -20 27 -24 27 -4 0 -8 4
-8 10 0 9 -16 32 -45 64 -31 33 -64 84 -60 89 3 4 2 5 -2 2 -6 -5 -26 19 -34
40 -2 5 -13 19 -24 30 -29 31 -55 64 -55 71 0 2 -9 14 -20 26 -10 12 -17 26
-13 31 3 6 1 7 -5 3 -6 -3 -16 2 -22 13 -6 11 -22 32 -35 47 -14 15 -23 29
-20 32 2 3 -7 13 -20 24 -14 11 -25 25 -25 33 0 7 -4 15 -8 17 -4 2 -23 23
-42 48 -19 25 -37 47 -40 50 -14 14 -70 90 -70 94 0 3 -7 14 -16 24 -52 59
-84 98 -84 104 0 8 -22 36 -47 63 -7 8 -13 16 -13 19 0 3 -11 18 -25 33 -50
57 -104 137 -98 146 3 6 1 7 -5 4 -5 -4 -24 12 -41 35 -41 58 -73 99 -88 114
-7 7 -13 15 -13 18 0 3 -7 14 -16 24 -8 9 -39 49 -67 87 -29 39 -54 72 -57 75
-3 3 -17 21 -30 40 -14 19 -35 46 -47 60 -13 14 -23 28 -23 31 0 3 -8 15 -17
26 -10 11 -29 35 -43 53 -14 18 -50 65 -80 104 -30 39 -82 106 -114 149 -32
42 -61 77 -63 77 -2 0 -4 -71 -3 -157z m2083 -7435 c-2 -5 -12 -8 -21 -8 -14
0 -15 -2 -2 -10 9 -6 17 -5 22 3 11 18 54 16 55 -3 1 -12 -9 -15 -45 -15 -31
0 -47 4 -46 13 2 29 5 33 14 27 6 -4 10 -3 9 2 -1 4 -1 15 1 23 1 11 4 9 9 -5
5 -11 7 -23 4 -27z m1307 -10 c29 -36 30 -39 9 -27 -28 15 -50 35 -49 46 3 15
-17 14 -30 -2 -19 -23 -30 -18 -17 8 15 33 48 24 87 -25z m-1649 8 c-6 -7 -8
-22 -4 -31 9 -25 -13 -11 -28 17 -10 18 -9 20 5 15 8 -3 18 -2 21 3 4 6 9 10
12 10 3 0 0 -6 -6 -14z m199 -1 c20 -24 6 -28 -15 -5 -10 11 -13 20 -8 20 6 0
16 -7 23 -15z m854 6 c3 -5 -1 -14 -9 -21 -11 -9 -14 -8 -12 9 1 22 12 28 21
12z m191 -1 c3 -5 1 -10 -4 -10 -6 0 -11 5 -11 10 0 6 2 10 4 10 3 0 8 -4 11
-10z m85 0 c0 -5 -5 -10 -11 -10 -5 0 -7 5 -4 10 3 6 8 10 11 10 2 0 4 -4 4
-10z m-715 -11 c4 -6 14 -8 22 -5 9 4 13 1 11 -6 -6 -18 -90 -17 -96 2 -4 12
-3 13 10 2 13 -10 17 -10 22 3 6 17 22 20 31 4z m360 -29 c-10 -11 -20 -18
-23 -15 -7 6 18 35 31 35 5 0 2 -9 -8 -20z m-1085 -5 c7 -9 8 -15 2 -15 -5 0
-12 7 -16 15 -3 8 -4 15 -2 15 2 0 9 -7 16 -15z m800 5 c0 -5 -5 -10 -11 -10
-5 0 -7 5 -4 10 3 6 8 10 11 10 2 0 4 -4 4 -10z"/>
<path d="M1880 7280 c-9 -6 -10 -10 -3 -10 6 0 15 5 18 10 8 12 4 12 -15 0z"/>
<path d="M1995 7249 c-4 -6 -5 -12 -2 -15 2 -3 7 2 10 11 7 17 1 20 -8 4z"/>
<path d="M3635 7200 c-3 -5 -1 -10 4 -10 6 0 11 5 11 10 0 6 -2 10 -4 10 -3 0
-8 -4 -11 -10z"/>
<path d="M8105 6880 c-3 -6 1 -7 9 -4 18 7 21 14 7 14 -6 0 -13 -4 -16 -10z"/>
<path d="M4205 6280 c-3 -6 1 -7 9 -4 18 7 21 14 7 14 -6 0 -13 -4 -16 -10z"/>
<path d="M4506 6162 c-3 -5 1 -9 9 -9 8 0 12 4 9 9 -3 4 -7 8 -9 8 -2 0 -6 -4
-9 -8z"/>
<path d="M5236 5993 c-6 -14 -5 -15 5 -6 7 7 10 15 7 18 -3 3 -9 -2 -12 -12z"/>
<path d="M4550 5806 c0 -2 7 -7 16 -10 8 -3 12 -2 9 4 -6 10 -25 14 -25 6z"/>
<path d="M1915 5749 c-4 -6 -5 -12 -2 -15 2 -3 7 2 10 11 7 17 1 20 -8 4z"/>
<path d="M5316 5678 c3 -5 10 -6 15 -3 13 9 11 12 -6 12 -8 0 -12 -4 -9 -9z"/>
<path d="M4997 5493 c-10 -9 -9 -23 1 -23 5 0 9 7 9 15 0 17 -1 18 -10 8z"/>
<path d="M4827 5439 c7 -7 15 -10 18 -7 3 3 -2 9 -12 12 -14 6 -15 5 -6 -5z"/>
<path d="M4976 5358 c3 -5 10 -6 15 -3 13 9 11 12 -6 12 -8 0 -12 -4 -9 -9z"/>
<path d="M4893 5295 c0 -8 4 -12 9 -9 5 3 6 10 3 15 -9 13 -12 11 -12 -6z"/>
<path d="M4966 5302 c-3 -5 1 -9 9 -9 8 0 12 4 9 9 -3 4 -7 8 -9 8 -2 0 -6 -4
-9 -8z"/>
<path d="M1955 5081 c-3 -5 -2 -12 3 -15 5 -3 9 1 9 9 0 17 -3 19 -12 6z"/>
<path d="M1910 5040 c0 -5 5 -10 11 -10 5 0 7 5 4 10 -3 6 -8 10 -11 10 -2 0
-4 -4 -4 -10z"/>
<path d="M1954 4529 c-3 -6 -2 -15 3 -20 5 -5 9 -1 9 11 0 23 -2 24 -12 9z"/>
<path d="M1985 4400 c-3 -6 1 -7 9 -4 18 7 21 14 7 14 -6 0 -13 -4 -16 -10z"/>
<path d="M1954 3886 c1 -8 5 -18 8 -22 4 -3 5 1 4 10 -1 8 -5 18 -8 22 -4 3
-5 -1 -4 -10z"/>
<path d="M1985 3760 c-3 -6 1 -7 9 -4 18 7 21 14 7 14 -6 0 -13 -4 -16 -10z"/>
<path d="M8110 3520 c0 -5 5 -10 11 -10 5 0 7 5 4 10 -3 6 -8 10 -11 10 -2 0
-4 -4 -4 -10z"/>
<path d="M1719 3433 c-13 -16 -12 -17 4 -4 9 7 17 15 17 17 0 8 -8 3 -21 -13z"/>
<path d="M1710 3366 c0 -2 7 -7 16 -10 8 -3 12 -2 9 4 -6 10 -25 14 -25 6z"/>
<path d="M2040 2640 c8 -5 20 -10 25 -10 6 0 3 5 -5 10 -8 5 -19 10 -25 10 -5
0 -3 -5 5 -10z"/>
<path d="M7916 2567 c3 -10 9 -15 12 -12 3 3 0 11 -7 18 -10 9 -11 8 -5 -6z"/>
<path d="M7995 2540 c3 -5 8 -10 11 -10 2 0 4 5 4 10 0 6 -5 10 -11 10 -5 0
-7 -4 -4 -10z"/>
<path d="M1870 2206 c0 -2 7 -7 16 -10 8 -3 12 -2 9 4 -6 10 -25 14 -25 6z"/>
<path d="M8227 2039 c7 -7 15 -10 18 -7 3 3 -2 9 -12 12 -14 6 -15 5 -6 -5z"/>
<path d="M7945 1920 c-3 -6 1 -7 9 -4 18 7 21 14 7 14 -6 0 -13 -4 -16 -10z"/>
<path d="M7955 1760 c-3 -5 -1 -10 4 -10 6 0 11 5 11 10 0 6 -2 10 -4 10 -3 0
-8 -4 -11 -10z"/>
<path d="M7870 1516 c0 -2 8 -10 18 -17 15 -13 16 -12 3 4 -13 16 -21 21 -21
13z"/>
<path d="M6610 1345 c-11 -13 -10 -14 4 -9 9 3 16 10 16 15 0 13 -6 11 -20 -6z"/>
<path d="M3264 1336 c11 -9 16 -16 10 -16 -5 0 -2 -6 6 -13 8 -7 16 -20 18
-30 3 -15 0 -16 -17 -5 -11 6 -19 17 -18 22 1 6 -8 11 -20 11 -13 0 -23 -4
-24 -10 0 -5 -10 -15 -22 -22 -12 -7 -18 -12 -14 -13 17 0 47 21 42 31 -4 5 3
9 15 9 12 0 19 -4 16 -9 -3 -5 5 -16 19 -25 14 -9 26 -15 26 -14 8 17 3 51 -8
55 -11 5 -11 9 4 27 10 11 11 16 4 9 -10 -9 -20 -9 -35 -2 -20 10 -20 10 -2
-5z"/>
<path d="M3556 1335 c-9 -9 -16 -13 -16 -9 0 4 -12 -6 -26 -21 -27 -30 -27
-68 1 -45 10 9 15 9 15 1 0 -6 5 -11 11 -11 8 0 8 5 -1 15 -15 18 0 20 20 3
12 -11 12 -10 1 5 -7 9 -9 17 -5 17 5 0 15 10 22 21 18 28 1 46 -22 24z m-11
-40 c-45 -38 -57 -38 -27 -1 10 14 22 23 24 20 3 -2 11 2 18 11 7 9 16 13 19
9 3 -3 -12 -21 -34 -39z"/>
<path d="M3616 1321 c10 -16 29 -34 43 -41 23 -9 22 -7 -7 15 -18 15 -30 30
-27 35 3 4 -2 11 -11 14 -13 5 -13 2 2 -23z"/>
<path d="M3645 1342 c-10 -10 -4 -20 20 -36 14 -9 25 -12 25 -7 0 5 -9 13 -20
16 -26 8 -26 20 0 22 13 1 18 -2 13 -10 -4 -7 0 -6 10 2 9 7 17 14 17 15 0 5
-61 2 -65 -2z"/>
<path d="M3776 1338 c3 -4 11 -5 19 -1 21 7 19 12 -4 10 -11 0 -18 -5 -15 -9z"/>
<path d="M3896 1338 c3 -5 10 -6 15 -3 13 9 11 12 -6 12 -8 0 -12 -4 -9 -9z"/>
<path d="M4702 1345 c4 -4 1 -14 -7 -21 -16 -16 -29 -19 -20 -4 3 6 1 10 -4
10 -13 0 -14 -10 -2 -29 8 -12 13 -11 29 10 11 13 23 22 26 19 3 -3 -6 -19
-19 -35 l-25 -30 -20 24 c-11 12 -17 27 -14 32 3 5 0 9 -6 9 -6 0 -10 -10 -8
-22 2 -15 -5 -26 -22 -35 -14 -7 -19 -13 -11 -13 8 0 23 7 33 17 19 17 26 5 7
-14 -16 -16 -2 -34 19 -26 15 6 15 5 3 -10 -7 -9 -9 -17 -3 -17 14 0 23 28 12
35 -6 4 -15 3 -21 -1 -7 -4 -10 -1 -7 7 7 20 66 20 78 0 7 -12 8 -9 6 14 -1
17 1 37 5 46 9 18 0 33 -21 37 -8 2 -12 1 -8 -3z"/>
<path d="M4966 1335 c-10 -8 -25 -11 -34 -8 -12 5 -11 1 4 -14 16 -16 22 -18
38 -7 10 7 26 10 35 7 13 -4 13 -3 2 5 -7 5 -16 14 -20 20 -4 7 -12 6 -25 -3z
m14 -15 c-8 -5 -19 -10 -25 -10 -5 0 -3 5 5 10 8 5 20 10 25 10 6 0 3 -5 -5
-10z"/>
<path d="M5199 1339 c-8 -5 -8 -8 0 -13 6 -4 11 -3 11 1 0 5 8 9 18 10 10 1
19 -5 19 -13 0 -8 -6 -13 -13 -10 -8 3 -11 0 -7 -9 4 -13 8 -13 25 -1 11 8 27
12 34 9 16 -6 18 5 5 25 -7 11 -9 11 -14 -2 -4 -9 -12 -16 -18 -16 -8 0 -8 4
-1 13 9 11 5 13 -18 13 -16 0 -35 -3 -41 -7z"/>
<path d="M5319 1339 c-8 -5 -8 -9 0 -13 6 -4 11 -2 11 4 0 6 4 9 8 6 4 -2 14
-1 22 4 11 7 9 9 -8 7 -13 -1 -28 -4 -33 -8z"/>
<path d="M5705 1326 c17 -15 40 -31 53 -36 12 -5 22 -15 22 -21 0 -8 -6 -7
-17 2 -17 13 -17 12 -4 -4 14 -18 16 -18 28 -1 7 10 13 14 13 10 0 -5 7 -3 15
4 12 10 13 16 5 24 -8 8 -15 7 -23 -5 -10 -12 -16 -13 -34 -4 -17 9 -20 14
-11 23 9 9 9 12 0 12 -7 0 -12 -5 -12 -11 0 -5 -5 -7 -10 -4 -8 5 -7 12 2 23
10 14 10 15 -2 5 -9 -9 -19 -9 -34 -2 -13 7 -10 1 9 -15z m115 -30 c0 -3 -4
-8 -10 -11 -5 -3 -10 -1 -10 4 0 6 5 11 10 11 6 0 10 -2 10 -4z"/>
<path d="M5832 1326 c-1 -16 1 -18 8 -6 7 10 10 11 10 3 0 -7 5 -13 10 -13 16
0 12 14 -8 26 -15 10 -18 8 -20 -10z"/>
<path d="M5900 1343 c0 -7 8 -21 18 -31 9 -10 18 -26 20 -35 3 -15 0 -16 -17
-5 -11 6 -19 16 -18 21 1 5 -4 12 -10 14 -18 7 -27 -22 -14 -44 9 -15 10 -13
5 10 -4 17 -2 27 6 27 6 0 9 -4 6 -9 -3 -5 5 -16 19 -25 14 -9 26 -15 26 -14
8 17 3 51 -7 55 -8 3 -14 9 -14 14 0 6 8 5 19 -1 24 -12 31 -13 31 -2 0 5 -6
9 -12 9 -23 1 -43 8 -50 18 -5 6 -8 5 -8 -2z"/>
<path d="M5990 1331 c14 -11 30 -21 35 -21 11 0 -7 14 -40 31 -13 7 -12 3 5
-10z"/>
<path d="M6399 1343 c0 -5 -2 -18 -5 -30 -2 -13 0 -23 4 -23 4 0 8 14 8 30 1
17 0 30 -2 30 -2 0 -4 -3 -5 -7z"/>
<path d="M6570 1340 c0 -5 5 -10 11 -10 5 0 7 5 4 10 -3 6 -8 10 -11 10 -2 0
-4 -4 -4 -10z"/>
<path d="M6796 1342 c-3 -5 1 -9 9 -9 8 0 12 4 9 9 -3 4 -7 8 -9 8 -2 0 -6 -4
-9 -8z"/>
<path d="M2453 1325 c0 -8 4 -12 9 -9 5 3 6 10 3 15 -9 13 -12 11 -12 -6z"/>
<path d="M2730 1326 c0 -8 4 -17 9 -20 5 -4 7 3 4 14 -6 23 -13 26 -13 6z"/>
<path d="M2931 1324 c0 -11 3 -14 6 -6 3 7 2 16 -1 19 -3 4 -6 -2 -5 -13z"/>
<path d="M2991 1324 c0 -11 3 -14 6 -6 3 7 2 16 -1 19 -3 4 -6 -2 -5 -13z"/>
<path d="M3157 1321 c4 -15 1 -21 -8 -19 -8 2 -14 -6 -15 -17 -1 -15 0 -16 3
-2 3 9 9 15 14 12 14 -9 23 25 11 37 -8 8 -9 5 -5 -11z"/>
<path d="M3205 1331 c3 -5 -1 -11 -7 -14 -7 -2 -11 -7 -8 -10 3 -3 13 0 23 8
16 11 16 13 2 19 -9 3 -14 2 -10 -3z"/>
<path d="M3433 1326 c-3 -5 -1 -6 5 -2 7 4 12 3 12 -2 0 -14 27 -23 45 -15 9
3 14 11 12 17 -4 13 -66 15 -74 2z m62 -6 c-3 -5 -10 -10 -16 -10 -5 0 -9 5
-9 10 0 6 7 10 16 10 8 0 12 -4 9 -10z"/>
<path d="M5030 1326 c0 -8 5 -18 10 -21 6 -3 10 -11 10 -18 0 -8 -3 -8 -12 1
-7 7 -16 12 -21 12 -19 0 19 -26 40 -27 l23 -2 -20 22 c-11 12 -18 27 -16 34
3 7 1 13 -4 13 -6 0 -10 -6 -10 -14z"/>
<path d="M5544 1325 c8 -8 18 -15 22 -15 3 0 1 7 -6 15 -7 8 -17 15 -22 15 -5
0 -3 -7 6 -15z"/>
<path d="M5654 1329 c-4 -7 -3 -9 4 -5 5 3 12 0 15 -6 2 -7 7 -10 11 -7 4 3 0
12 -8 18 -11 9 -16 9 -22 0z"/>
<path d="M5780 1330 c-8 -5 -11 -12 -7 -17 5 -4 11 -3 15 3 4 6 14 14 22 17
13 5 13 5 0 6 -8 0 -22 -3 -30 -9z"/>
<path d="M6075 1330 c-3 -5 -1 -10 4 -10 6 0 11 5 11 10 0 6 -2 10 -4 10 -3 0
-8 -4 -11 -10z"/>
<path d="M6202 1320 c0 -14 2 -19 5 -12 2 6 2 18 0 25 -3 6 -5 1 -5 -13z"/>
<path d="M6292 1320 c0 -14 2 -19 5 -12 2 6 2 18 0 25 -3 6 -5 1 -5 -13z"/>
<path d="M6441 1324 c0 -11 3 -14 6 -6 3 7 2 16 -1 19 -3 4 -6 -2 -5 -13z"/>
<path d="M6533 1330 c2 -7 7 -12 12 -12 6 -1 16 -8 23 -17 11 -14 11 -13 2 7
-6 12 -15 20 -20 17 -4 -3 -11 0 -13 5 -4 7 -5 6 -4 0z"/>
<path d="M6954 1329 c-3 -6 -2 -15 3 -20 5 -5 9 -1 9 11 0 23 -2 24 -12 9z"/>
<path d="M2779 1313 c-10 -12 -10 -15 -1 -9 7 4 20 2 30 -6 16 -12 16 -11 2 7
-8 11 -15 21 -16 23 -1 1 -7 -5 -15 -15z"/>
<path d="M3021 1316 c-9 -11 -9 -16 0 -22 7 -4 9 -3 5 4 -3 5 0 12 6 15 7 2
10 7 7 11 -3 4 -12 0 -18 -8z"/>
<path d="M3115 1320 c-3 -5 -2 -10 4 -10 5 0 13 5 16 10 3 6 2 10 -4 10 -5 0
-13 -4 -16 -10z"/>
<path d="M4605 1310 c5 -14 2 -20 -10 -20 -8 0 -18 -7 -21 -15 -4 -8 -10 -12
-15 -9 -5 3 -9 0 -9 -5 0 -15 17 -14 27 2 4 8 16 16 25 20 17 6 21 47 5 47 -5
0 -5 -9 -2 -20z"/>
<path d="M5623 1324 c3 -3 -3 -15 -14 -27 -10 -11 -19 -26 -19 -31 0 -12 49
44 50 57 0 4 -5 7 -12 7 -6 0 -9 -3 -5 -6z"/>
<path d="M6144 1317 c-2 -7 -14 -13 -24 -14 -13 -1 -18 2 -14 9 4 7 2 8 -5 4
-16 -10 -4 -26 18 -23 21 3 58 37 41 37 -6 0 -13 -6 -16 -13z"/>
<path d="M6235 1319 c-4 -6 -4 -13 -1 -16 3 -4 6 -1 6 6 0 7 5 9 10 6 6 -3 10
-1 10 4 0 14 -17 14 -25 0z"/>
<path d="M6351 1317 c-1 -11 -6 -15 -13 -11 -7 5 -8 3 -3 -5 10 -16 29 2 22
21 -4 8 -6 7 -6 -5z"/>
<path d="M6506 1320 c6 -8 10 -27 9 -43 -1 -15 1 -25 4 -22 12 13 7 56 -8 68
-14 10 -14 10 -5 -3z"/>
<path d="M6676 1321 c-3 -5 2 -15 12 -22 15 -12 16 -12 5 2 -7 9 -10 19 -6 22
3 4 4 7 0 7 -3 0 -8 -4 -11 -9z"/>
<path d="M2415 1311 c-3 -5 -2 -12 3 -15 5 -3 9 1 9 9 0 17 -3 19 -12 6z"/>
<path d="M2670 1316 c0 -2 8 -10 18 -17 15 -13 16 -12 3 4 -13 16 -21 21 -21
13z"/>
<path d="M3071 1312 c-1 -7 -6 -10 -13 -6 -6 4 -8 3 -5 -4 4 -5 15 -9 25 -8 9
2 23 -4 30 -13 11 -14 11 -13 2 7 -6 12 -15 20 -20 17 -4 -3 -11 1 -13 7 -4
10 -6 10 -6 0z"/>
<path d="M5346 1305 c3 -8 11 -15 18 -15 6 0 4 -4 -4 -10 -8 -5 -12 -11 -10
-14 3 -2 12 1 21 7 15 11 14 14 -7 30 -19 14 -23 15 -18 2z"/>
<path d="M2975 1300 c5 -9 1 -10 -16 -6 -21 6 -22 6 -6 -5 13 -7 22 -8 29 -1
6 6 6 12 -3 17 -8 6 -10 4 -4 -5z"/>
<path d="M3331 1297 c-6 -8 -8 -17 -4 -20 3 -4 1 -12 -5 -20 -7 -8 -8 -18 -1
-27 8 -12 9 -11 7 5 -2 11 2 20 7 20 14 1 52 24 40 25 -6 0 -16 -5 -22 -11 -9
-9 -12 -7 -10 10 1 18 6 21 25 16 15 -4 21 -2 17 5 -9 14 -40 13 -54 -3z"/>
<path d="M3409 1293 c-8 -9 -9 -14 -2 -10 6 4 13 1 16 -5 3 -10 7 -10 17 -1
12 11 6 33 -9 33 -5 0 -15 -8 -22 -17z m31 -3 c0 -5 -2 -10 -4 -10 -3 0 -8 5
-11 10 -3 6 -1 10 4 10 6 0 11 -4 11 -10z"/>
<path d="M3586 1295 c-6 -18 2 -45 15 -45 13 0 11 18 -3 22 -6 2 -8 10 -4 17
6 9 12 7 23 -8 8 -12 21 -21 29 -21 8 0 12 -5 9 -10 -4 -6 -11 -8 -16 -5 -5 4
-17 1 -26 -5 -16 -9 -15 -10 4 -5 19 5 22 3 17 -12 -6 -15 -5 -15 9 2 18 23
36 26 55 8 7 -7 20 -13 28 -13 8 0 13 -5 12 -12 -2 -6 5 -14 15 -16 9 -2 17 1
17 7 0 6 -7 7 -17 4 -11 -4 -14 -3 -9 5 4 7 0 15 -11 19 -10 4 -21 11 -24 15
-3 5 -12 11 -20 12 -33 7 -67 26 -72 40 -8 20 -23 21 -31 1z"/>
<path d="M5178 1287 c-17 -20 -18 -21 -28 -4 -12 19 -28 21 -49 8 -11 -7 -9
-13 8 -30 11 -11 21 -17 21 -12 0 6 -4 13 -10 16 -16 10 -12 25 7 25 9 0 13
-3 10 -7 -4 -3 1 -12 10 -18 14 -10 20 -9 35 9 l18 21 18 -22 19 -21 28 24
c15 13 23 24 17 24 -6 0 -18 -8 -28 -17 -16 -16 -18 -16 -34 5 -22 27 -21 27
-42 -1z"/>
<path d="M5304 1295 c-4 -9 -4 -19 0 -22 3 -4 6 1 6 10 0 10 5 17 10 17 18 0
10 -27 -12 -45 -23 -17 -23 -17 2 -2 26 15 34 47 13 54 -7 3 -16 -3 -19 -12z"/>
<path d="M5650 1302 c0 -5 7 -12 15 -16 19 -7 45 3 45 16 0 6 -6 5 -15 -2 -12
-10 -18 -10 -30 0 -9 7 -15 8 -15 2z"/>
<path d="M5973 1299 c-16 -16 1 -48 24 -45 10 2 22 -2 26 -8 6 -7 7 -6 4 4 -2
8 -13 14 -25 14 -14 -1 -20 4 -19 17 1 21 12 25 20 9 3 -6 4 -5 3 2 -3 17 -20
20 -33 7z"/>
<path d="M6059 1308 c-4 -15 -6 -50 -3 -41 3 7 5 15 4 19 -1 4 4 11 12 15 10
7 10 9 1 9 -7 0 -13 -1 -14 -2z"/>
<path d="M6146 1278 c-9 -18 -11 -25 -3 -16 8 10 16 16 18 13 3 -2 5 5 6 15 2
27 0 25 -21 -12z"/>
<path d="M6270 1305 c0 -5 5 -17 10 -25 5 -8 10 -10 10 -5 0 6 -5 17 -10 25
-5 8 -10 11 -10 5z"/>
<path d="M6310 1301 c0 -6 4 -13 10 -16 6 -3 7 1 4 9 -7 18 -14 21 -14 7z"/>
<path d="M6600 1300 c-9 -6 -10 -10 -3 -10 6 0 15 5 18 10 8 12 4 12 -15 0z"/>
<path d="M6720 1300 c-9 -6 -10 -10 -3 -10 6 0 15 5 18 10 8 12 4 12 -15 0z"/>
<path d="M6755 1302 c3 -3 -1 -12 -7 -21 -8 -10 -4 -9 10 3 26 23 26 23 7 23
-8 0 -13 -3 -10 -5z"/>
<path d="M7315 1299 c-3 -4 2 -6 10 -5 21 3 28 13 10 13 -9 0 -18 -4 -20 -8z"/>
<path d="M7375 1299 c-3 -4 2 -6 10 -5 21 3 28 13 10 13 -9 0 -18 -4 -20 -8z"/>
<path d="M2555 1289 c-4 -6 -5 -12 -2 -15 2 -3 7 2 10 11 7 17 1 20 -8 4z"/>
<path d="M3768 1292 c8 -5 13 -13 12 -18 0 -5 7 -10 17 -11 17 -3 17 -2 0 5
-10 4 -18 12 -17 17 1 5 -4 11 -12 13 -11 3 -11 2 0 -6z"/>
<path d="M4975 1290 c-3 -6 1 -7 9 -4 18 7 21 14 7 14 -6 0 -13 -4 -16 -10z"/>
<path d="M5570 1285 c0 -8 2 -15 4 -15 2 0 6 7 10 15 3 8 1 15 -4 15 -6 0 -10
-7 -10 -15z"/>
<path d="M5825 1270 c-11 -16 -23 -26 -29 -23 -5 3 -6 1 -2 -5 10 -16 26 -15
26 2 0 16 31 16 43 1 5 -6 7 -4 4 5 -2 8 -12 13 -22 12 -16 -3 -17 -2 -6 12 8
9 12 18 10 21 -3 2 -13 -9 -24 -25z"/>
<path d="M6031 1284 c0 -11 3 -14 6 -6 3 7 2 16 -1 19 -3 4 -6 -2 -5 -13z"/>
<path d="M6854 1280 c0 -13 4 -16 10 -10 7 7 7 13 0 20 -6 6 -10 3 -10 -10z"/>
<path d="M2270 1286 c0 -2 7 -7 16 -10 8 -3 12 -2 9 4 -6 10 -25 14 -25 6z"/>
<path d="M2757 1272 c-15 -16 -15 -19 -2 -19 8 0 13 3 10 5 -3 3 0 11 6 19 17
20 5 16 -14 -5z"/>
<path d="M2897 1276 c-4 -10 -1 -13 8 -9 8 3 12 9 9 14 -7 12 -11 11 -17 -5z"/>
<path d="M3007 1279 c7 -7 15 -10 18 -7 3 3 -2 9 -12 12 -14 6 -15 5 -6 -5z"/>
<path d="M3456 1274 c-4 -9 -4 -19 -1 -22 2 -3 7 3 11 12 4 9 4 19 1 22 -2 3
-7 -3 -11 -12z"/>
<path d="M4053 1263 c-29 -36 -21 -43 9 -8 l24 27 13 -26 c8 -14 18 -26 23
-26 5 0 0 14 -12 30 -12 17 -24 30 -28 30 -4 0 -17 -13 -29 -27z"/>
<path d="M5632 1284 c4 -3 -3 -15 -15 -26 -12 -11 -17 -17 -10 -14 6 4 14 2
18 -4 3 -5 11 -10 18 -10 6 0 2 7 -9 16 -17 14 -17 15 -1 10 10 -3 16 -2 12 3
-3 5 0 11 7 13 7 3 4 7 -7 12 -11 4 -16 4 -13 0z"/>
<path d="M5710 1280 c-11 -7 -11 -10 -2 -10 7 0 10 -4 7 -10 -4 -6 1 -7 11 -3
11 4 15 3 10 -5 -3 -6 3 -16 14 -22 13 -7 20 -7 20 0 0 5 -7 10 -16 10 -8 0
-12 5 -9 10 3 6 -1 13 -9 16 -9 3 -13 10 -10 15 7 11 3 11 -16 -1z"/>
<path d="M6076 1275 c-9 -26 -7 -32 5 -12 6 10 9 21 6 23 -2 3 -7 -2 -11 -11z"/>
<path d="M6210 1280 c0 -5 5 -10 10 -10 6 0 10 5 10 10 0 6 -4 10 -10 10 -5 0
-10 -4 -10 -10z"/>
<path d="M6245 1279 c-4 -6 -5 -12 -2 -15 2 -3 7 2 10 11 7 17 1 20 -8 4z"/>
<path d="M6417 1276 c-4 -10 1 -12 14 -9 23 6 24 9 5 16 -8 3 -17 0 -19 -7z"/>
<path d="M6653 1273 c0 -9 4 -10 14 -2 7 6 13 12 13 14 0 1 -6 2 -13 2 -8 0
-14 -6 -14 -14z"/>
<path d="M6935 1280 c3 -5 8 -10 11 -10 2 0 4 5 4 10 0 6 -5 10 -11 10 -5 0
-7 -4 -4 -10z"/>
<path d="M4910 1271 c0 -10 19 -25 25 -20 1 2 -3 10 -11 17 -8 7 -14 8 -14 3z"/>
<path d="M4950 1271 c0 -5 7 -11 15 -15 8 -3 15 -1 15 3 0 5 -7 11 -15 15 -8
3 -15 1 -15 -3z"/>
<path d="M5010 1260 c13 -11 25 -20 28 -20 3 0 -3 9 -13 20 -10 11 -23 20 -28
20 -6 0 0 -9 13 -20z"/>
<path d="M5276 1265 c-9 -26 -7 -32 5 -12 6 10 9 21 6 23 -2 3 -7 -2 -11 -11z"/>
<path d="M6108 1268 c-12 -9 -13 -19 -7 -33 l9 -20 -3 20 c-1 11 4 25 13 32 8
7 12 13 9 13 -3 0 -12 -6 -21 -12z"/>
<path d="M6350 1276 c0 -2 9 -6 20 -9 11 -3 18 -1 14 4 -5 9 -34 13 -34 5z"/>
<path d="M6590 1276 c0 -2 8 -10 18 -17 15 -13 16 -12 3 4 -13 16 -21 21 -21
13z"/>
<path d="M2587 1259 c7 -7 15 -10 18 -7 3 3 -2 9 -12 12 -14 6 -15 5 -6 -5z"/>
<path d="M2706 1258 c3 -5 10 -6 15 -3 13 9 11 12 -6 12 -8 0 -12 -4 -9 -9z"/>
<path d="M2785 1260 c-3 -6 1 -7 9 -4 18 7 21 14 7 14 -6 0 -13 -4 -16 -10z"/>
<path d="M2829 1258 c11 -15 11 -21 0 -35 -13 -17 -13 -17 7 0 11 9 23 15 26
12 2 -3 5 2 5 10 0 8 -4 12 -9 9 -5 -3 -17 0 -26 8 -15 12 -16 11 -3 -4z"/>
<path d="M3096 1257 c3 -10 9 -15 12 -12 3 3 0 11 -7 18 -10 9 -11 8 -5 -6z"/>
<path d="M3150 1259 c0 -5 5 -7 10 -4 6 3 10 8 10 11 0 2 -4 4 -10 4 -5 0 -10
-5 -10 -11z"/>
<path d="M3230 1260 c0 -5 5 -10 10 -10 6 0 10 5 10 10 0 6 -4 10 -10 10 -5 0
-10 -4 -10 -10z"/>
<path d="M3390 1260 c0 -5 5 -10 10 -10 6 0 10 5 10 10 0 6 -4 10 -10 10 -5 0
-10 -4 -10 -10z"/>
<path d="M4313 1263 c7 -11 -19 -33 -29 -25 -5 4 -2 -1 5 -10 7 -10 23 -18 35
-17 19 1 19 2 -3 8 -21 6 -22 8 -7 20 13 11 16 11 16 1 0 -8 2 -11 5 -8 8 8
-6 38 -17 38 -5 0 -7 -3 -5 -7z"/>
<path d="M4740 1260 c0 -5 7 -7 15 -4 8 4 15 8 15 10 0 2 -7 4 -15 4 -8 0 -15
-4 -15 -10z"/>
<path d="M5186 1254 c-8 -21 -8 -24 5 -24 5 0 7 5 3 12 -5 7 -2 9 9 5 11 -4
14 -2 10 9 -7 19 -19 18 -27 -2z"/>
<path d="M5375 1260 c-8 -13 5 -13 25 0 13 8 13 10 -2 10 -9 0 -20 -4 -23 -10z"/>
<path d="M5454 1259 c-3 -6 -2 -15 4 -21 12 -12 32 -2 31 15 0 9 -2 9 -6 0 -2
-7 -9 -13 -14 -13 -4 0 -6 7 -3 15 7 17 -2 20 -12 4z"/>
<path d="M5665 1259 c-4 -6 -4 -13 -1 -16 3 -4 6 -1 6 6 0 7 5 9 10 6 6 -4 8
-11 5 -16 -4 -5 -1 -9 4 -9 13 0 13 3 5 24 -7 18 -20 21 -29 5z"/>
<path d="M6321 1261 c-9 -6 -10 -11 -2 -15 6 -4 11 -2 11 4 0 6 5 8 12 4 7 -4
8 -3 4 4 -8 14 -7 14 -25 3z"/>
<path d="M6679 1253 c-13 -16 -12 -17 4 -4 16 13 21 21 13 21 -2 0 -10 -8 -17
-17z"/>
<path d="M7210 1259 c0 -5 5 -7 10 -4 6 3 10 8 10 11 0 2 -4 4 -10 4 -5 0 -10
-5 -10 -11z"/>
<path d="M2997 1253 c-10 -9 -9 -23 1 -23 5 0 9 7 9 15 0 17 -1 18 -10 8z"/>
<path d="M3028 1253 c7 -3 16 -2 19 1 4 3 -2 6 -13 5 -11 0 -14 -3 -6 -6z"/>
<path d="M3757 1253 c-4 -3 -7 -11 -7 -17 0 -6 5 -5 12 2 6 6 9 14 7 17 -3 3
-9 2 -12 -2z"/>
<path d="M4180 1240 c6 -11 16 -20 23 -19 9 0 9 2 0 6 -7 2 -13 11 -13 19 0 8
-5 14 -10 14 -7 0 -7 -6 0 -20z"/>
<path d="M4210 1252 c0 -5 7 -17 16 -28 15 -18 15 -18 5 2 -6 12 -7 24 -4 28
3 3 1 6 -5 6 -7 0 -12 -4 -12 -8z"/>
<path d="M4415 1251 c3 -5 1 -12 -5 -16 -5 -3 -10 -1 -10 4 0 6 -5 11 -12 11
-9 0 -9 -3 0 -12 17 -17 15 -33 -3 -18 -9 7 -15 8 -15 2 0 -5 7 -12 15 -16 9
-3 12 -12 8 -23 -3 -10 -3 -15 1 -12 4 4 9 17 11 29 3 13 9 28 15 34 13 13 13
26 -1 26 -5 0 -8 -4 -4 -9z"/>
<path d="M4450 1245 c0 -8 2 -15 4 -15 2 0 6 7 10 15 3 8 1 15 -4 15 -6 0 -10
-7 -10 -15z"/>
<path d="M4491 1243 c7 -10 22 -28 33 -40 19 -23 19 -23 -2 -23 -12 0 -21 6
-19 13 1 6 -5 12 -13 12 -8 1 -26 7 -39 14 -13 7 -21 8 -17 3 3 -6 0 -13 -6
-16 -7 -3 -3 -3 9 -1 12 3 24 1 27 -4 4 -6 13 -8 22 -4 9 3 14 0 12 -8 -2 -9
6 -14 22 -14 15 0 24 5 23 13 -2 6 6 12 17 12 11 0 19 -5 18 -12 -2 -7 7 -13
18 -14 20 -1 21 2 12 27 -12 36 -21 38 -12 4 4 -15 2 -25 -5 -25 -6 0 -10 6
-8 13 1 7 -9 12 -28 12 -21 0 -33 7 -40 23 -5 12 -16 24 -24 27 -12 5 -12 3 0
-12z"/>
<path d="M4870 1251 c0 -6 -3 -10 -7 -8 -18 5 -13 -19 6 -32 14 -9 21 -10 21
-2 0 6 -7 11 -16 11 -14 0 -14 3 -4 15 14 17 35 21 25 5 -3 -5 -1 -10 5 -10 7
0 10 6 8 13 -6 15 -38 22 -38 8z"/>
<path d="M5051 1249 c-1 -19 -27 -33 -35 -18 -2 5 -3 4 -2 -3 1 -7 13 -18 25
-24 12 -6 22 -15 22 -20 -1 -5 9 -9 22 -9 12 0 21 5 20 13 -3 14 13 16 20 2 3
-6 4 -5 3 2 -2 7 -9 13 -17 13 -8 0 -13 -6 -11 -12 1 -7 -7 -13 -19 -13 -12 0
-17 4 -14 11 4 6 -3 13 -14 16 -20 5 -20 7 -5 18 9 6 14 18 11 26 -4 11 -6 10
-6 -2z"/>
<path d="M5080 1245 c9 -10 9 -15 1 -15 -6 0 -11 -4 -11 -10 0 -17 14 -11 28
11 8 12 9 18 3 14 -6 -3 -11 -1 -11 4 0 6 -5 11 -11 11 -8 0 -8 -5 1 -15z"/>
<path d="M5553 1253 c9 -2 15 -9 12 -14 -3 -5 1 -6 10 -2 13 5 14 7 3 14 -7 5
-20 8 -28 8 -11 -1 -10 -3 3 -6z"/>
<path d="M6146 1241 c-13 -14 -14 -21 -5 -27 8 -4 10 -3 5 4 -4 7 -3 12 2 12
6 0 12 7 16 15 7 20 3 19 -18 -4z"/>
<path d="M6184 1244 c-18 -14 -18 -15 4 -4 12 6 22 13 22 15 0 8 -5 6 -26 -11z"/>
<path d="M6275 1250 c-3 -6 1 -7 9 -4 18 7 21 14 7 14 -6 0 -13 -4 -16 -10z"/>
<path d="M6557 1253 c-10 -9 -9 -23 1 -23 5 0 9 7 9 15 0 17 -1 18 -10 8z"/>
<path d="M6735 1250 c-4 -6 -10 -8 -15 -5 -4 3 -14 -3 -21 -13 -12 -15 -12
-16 2 -5 9 7 18 11 21 8 3 -3 11 1 18 10 7 8 10 15 7 15 -3 0 -9 -5 -12 -10z"/>
<path d="M6930 1256 c0 -2 8 -10 18 -17 15 -13 16 -12 3 4 -13 16 -21 21 -21
13z"/>
<path d="M2670 1240 c0 -5 5 -10 11 -10 5 0 7 5 4 10 -3 6 -8 10 -11 10 -2 0
-4 -4 -4 -10z"/>
<path d="M2893 1235 c0 -8 4 -12 9 -9 5 3 6 10 3 15 -9 13 -12 11 -12 -6z"/>
<path d="M3125 1240 c-3 -5 -1 -10 5 -10 6 0 8 -5 4 -12 -4 -7 -3 -8 4 -4 6 4
9 13 5 21 -6 18 -10 19 -18 5z"/>
<path d="M3170 1239 c0 -5 5 -7 10 -4 6 3 10 8 10 11 0 2 -4 4 -10 4 -5 0 -10
-5 -10 -11z"/>
<path d="M3244 1234 c-18 -14 -18 -14 6 -3 31 14 36 19 24 19 -6 0 -19 -7 -30
-16z"/>
<path d="M3355 1239 c-11 -16 -1 -19 13 -3 7 8 8 14 3 14 -5 0 -13 -5 -16 -11z"/>
<path d="M3420 1245 c0 -7 53 -32 65 -30 22 4 59 24 45 24 -9 1 -21 -4 -28
-11 -9 -9 -12 -8 -12 5 0 9 -4 17 -10 17 -5 0 -6 -8 -3 -17 7 -17 6 -17 -20 0
-27 17 -37 21 -37 12z"/>
<path d="M3570 1229 c7 -11 14 -19 16 -16 7 7 -7 37 -17 37 -6 0 -5 -9 1 -21z"/>
<path d="M3800 1240 c0 -5 5 -10 10 -10 6 0 10 5 10 10 0 6 -4 10 -10 10 -5 0
-10 -4 -10 -10z"/>
<path d="M3920 1240 c-8 -5 -12 -11 -10 -14 3 -2 14 2 24 10 22 15 10 19 -14
4z"/>
<path d="M4079 1237 c6 -8 7 -18 3 -22 -4 -5 -2 -5 5 -1 8 4 11 -1 10 -14 -1
-21 -12 -27 -20 -10 -3 6 -4 5 -3 -2 4 -20 29 -15 32 6 3 20 -16 56 -30 56 -4
0 -3 -6 3 -13z"/>
<path d="M4240 1239 c0 -5 5 -7 10 -4 6 3 10 8 10 11 0 2 -4 4 -10 4 -5 0 -10
-5 -10 -11z"/>
<path d="M4566 1235 c-11 -8 -16 -15 -10 -15 5 0 18 7 28 15 11 8 16 15 10 15
-5 0 -18 -7 -28 -15z"/>
<path d="M4610 1238 c0 -9 5 -20 10 -23 13 -8 13 5 0 25 -8 13 -10 13 -10 -2z"/>
<path d="M4690 1241 c0 -5 7 -11 14 -14 10 -4 13 -1 9 9 -6 15 -23 19 -23 5z"/>
<path d="M4760 1240 c0 -5 5 -10 10 -10 6 0 10 5 10 10 0 6 -4 10 -10 10 -5 0
-10 -4 -10 -10z"/>
<path d="M4950 1240 c0 -6 7 -10 15 -10 8 0 15 2 15 4 0 2 -7 6 -15 10 -8 3
-15 1 -15 -4z"/>
<path d="M5141 1238 c-1 -12 -7 -16 -18 -12 -15 5 -16 4 -3 -5 17 -12 35 1 27
21 -4 9 -6 8 -6 -4z"/>
<path d="M5250 1238 c0 -9 5 -20 10 -23 13 -8 13 5 0 25 -8 13 -10 13 -10 -2z"/>
<path d="M5333 1238 c2 -7 10 -13 18 -13 8 0 19 -4 25 -7 16 -11 49 -2 49 12
0 7 -6 14 -13 16 -7 1 -8 0 -2 -3 17 -8 11 -19 -10 -20 -11 -1 -18 2 -15 7 3
5 -6 7 -21 4 -16 -3 -23 -1 -19 6 3 5 1 10 -5 10 -7 0 -10 -6 -7 -12z"/>
<path d="M5496 1235 c-3 -9 1 -18 9 -21 8 -4 12 -11 8 -17 -3 -6 -1 -7 5 -3
17 10 15 26 -3 26 -9 0 -12 6 -9 15 4 8 4 15 1 15 -3 0 -8 -7 -11 -15z"/>
<path d="M5527 1239 c7 -7 15 -10 18 -7 3 3 -2 9 -12 12 -14 6 -15 5 -6 -5z"/>
<path d="M5900 1246 c0 -2 7 -7 16 -10 8 -3 12 -2 9 4 -6 10 -25 14 -25 6z"/>
<path d="M5955 1240 c3 -5 8 -10 11 -10 2 0 4 5 4 10 0 6 -5 10 -11 10 -5 0
-7 -4 -4 -10z"/>
<path d="M6050 1240 c0 -5 5 -10 11 -10 5 0 7 5 4 10 -3 6 -8 10 -11 10 -2 0
-4 -4 -4 -10z"/>
<path d="M6390 1239 c0 -5 5 -7 10 -4 6 3 10 8 10 11 0 2 -4 4 -10 4 -5 0 -10
-5 -10 -11z"/>
<path d="M6650 1241 c0 -6 4 -13 10 -16 6 -3 7 1 4 9 -7 18 -14 21 -14 7z"/>
<path d="M6819 1233 c-13 -16 -12 -17 4 -4 16 13 21 21 13 21 -2 0 -10 -8 -17
-17z"/>
<path d="M3040 1236 c0 -2 7 -7 16 -10 8 -3 12 -2 9 4 -6 10 -25 14 -25 6z"/>
<path d="M3390 1232 c0 -7 -5 -10 -12 -6 -6 4 -8 3 -5 -4 4 -5 15 -9 25 -8 10
2 20 -5 24 -18 7 -20 7 -20 5 2 -1 12 -6 22 -11 22 -5 -1 -13 4 -17 12 -7 10
-9 10 -9 0z"/>
<path d="M4004 1233 c4 -7 2 -13 -3 -13 -6 0 -11 -5 -11 -11 0 -8 4 -8 14 1
12 9 15 8 13 -10 -1 -14 -7 -20 -21 -18 -13 2 -22 -4 -24 -16 -6 -28 12 -40
29 -19 13 16 12 17 -3 4 -16 -12 -18 -11 -18 6 0 14 7 19 21 19 28 -1 35 36
12 55 -12 10 -15 10 -9 2z"/>
<path d="M4470 1230 c0 -5 5 -10 11 -10 5 0 7 5 4 10 -3 6 -8 10 -11 10 -2 0
-4 -4 -4 -10z"/>
<path d="M5835 1229 c-4 -6 -5 -12 -2 -15 2 -3 7 2 10 11 7 17 1 20 -8 4z"/>
<path d="M5881 1232 c-1 -7 -5 -11 -10 -8 -9 6 -41 -35 -41 -51 0 -4 8 4 18
18 9 15 25 25 34 23 10 -1 21 3 25 8 3 6 1 8 -5 4 -5 -3 -13 0 -15 6 -4 10 -6
10 -6 0z"/>
<path d="M5976 1223 c-6 -14 -5 -15 5 -6 7 7 10 15 7 18 -3 3 -9 -2 -12 -12z"/>
<path d="M6215 1230 c-4 -6 1 -7 11 -3 11 4 15 3 10 -5 -3 -6 -1 -14 5 -18 8
-4 9 -3 5 4 -4 7 -1 12 6 12 9 0 9 3 -2 10 -19 12 -27 12 -35 0z"/>
<path d="M6437 1227 c-3 -8 1 -14 8 -14 7 0 11 6 8 14 -3 7 -6 13 -8 13 -2 0
-5 -6 -8 -13z"/>
<path d="M2406 1222 c-3 -5 1 -9 9 -9 8 0 12 4 9 9 -3 4 -7 8 -9 8 -2 0 -6 -4
-9 -8z"/>
<path d="M2486 1218 c3 -5 10 -6 15 -3 13 9 11 12 -6 12 -8 0 -12 -4 -9 -9z"/>
<path d="M3077 1215 c-4 -8 -3 -16 1 -19 4 -3 9 4 9 15 2 23 -3 25 -10 4z"/>
<path d="M3270 1220 c0 -5 5 -10 10 -10 6 0 10 5 10 10 0 6 -4 10 -10 10 -5 0
-10 -4 -10 -10z"/>
<path d="M3553 1204 c0 -17 2 -22 7 -13 5 6 6 18 3 26 -8 19 -10 16 -10 -13z"/>
<path d="M3659 1227 c-8 -14 -3 -50 7 -54 8 -3 11 -10 7 -16 -4 -6 -1 -7 7 -2
11 7 10 10 -1 19 -8 6 -16 20 -17 30 -3 17 -2 18 12 7 9 -8 16 -9 16 -3 0 8
-28 26 -31 19z"/>
<path d="M3784 1215 c11 -8 24 -15 30 -15 5 0 1 7 -10 15 -10 8 -23 14 -29 14
-5 0 -1 -6 9 -14z"/>
<path d="M4051 1212 c-17 -31 -13 -40 5 -14 9 13 14 26 11 29 -3 2 -10 -4 -16
-15z"/>
<path d="M4131 1212 c-17 -31 -13 -40 5 -14 9 13 14 26 11 29 -3 2 -10 -4 -16
-15z"/>
<path d="M4255 1220 c-3 -5 -3 -14 0 -20 8 -13 35 -13 35 0 0 5 -7 7 -15 4
-11 -5 -13 -2 -9 10 7 18 -1 22 -11 6z"/>
<path d="M4727 1215 c-9 -21 13 -30 29 -11 8 9 9 11 2 6 -19 -15 -32 -12 -18
5 7 9 8 15 2 15 -5 0 -12 -7 -15 -15z"/>
<path d="M4815 1220 c-8 -13 3 -30 21 -30 18 0 18 14 0 29 -10 8 -16 9 -21 1z
m20 -10 c3 -5 1 -10 -4 -10 -6 0 -11 5 -11 10 0 6 2 10 4 10 3 0 8 -4 11 -10z"/>
<path d="M4910 1209 c-7 -11 -9 -23 -6 -27 3 -3 6 0 6 7 0 7 4 9 10 6 6 -3 7
1 4 10 -5 11 -2 14 12 8 12 -4 15 -3 10 5 -11 18 -24 14 -36 -9z"/>
<path d="M4991 1225 c1 -19 18 -51 18 -35 0 8 -4 22 -9 30 -5 8 -9 11 -9 5z"/>
<path d="M5200 1218 c-12 -8 -12 -9 2 -5 12 4 16 0 15 -14 -1 -11 -9 -19 -20
-19 -10 0 -16 4 -13 8 2 4 0 14 -5 22 -7 11 -8 8 -6 -10 5 -33 48 -36 53 -3 4
27 -7 35 -26 21z"/>
<path d="M5285 1223 c6 -4 12 -17 13 -27 3 -17 2 -18 -12 -7 -9 8 -16 9 -16 3
0 -13 28 -24 34 -13 9 14 -1 45 -15 49 -8 2 -10 0 -4 -5z"/>
<path d="M5439 1223 c0 -5 -3 -19 -5 -33 -4 -23 -4 -24 10 -5 7 10 12 25 9 32
-6 14 -13 17 -14 6z"/>
<path d="M5579 1227 c-12 -38 1 -72 17 -46 4 7 3 9 -4 5 -6 -4 -10 1 -9 13 1
12 8 19 20 18 12 -1 17 -7 14 -19 -3 -10 2 -22 11 -28 15 -8 15 -11 2 -20 -9
-6 -10 -10 -3 -10 19 0 27 22 12 34 -8 6 -14 20 -14 30 0 12 -8 20 -22 22 -13
2 -23 3 -24 1z"/>
<path d="M5657 1223 c-10 -10 -8 -33 3 -33 5 0 6 7 3 17 -5 12 -3 14 7 8 9 -5
11 -4 6 3 -8 14 -10 14 -19 5z"/>
<path d="M5710 1220 c0 -5 5 -10 10 -10 6 0 10 5 10 10 0 6 -4 10 -10 10 -5 0
-10 -4 -10 -10z"/>
<path d="M5915 1210 c-16 -11 -25 -20 -20 -20 10 0 64 39 55 40 -3 0 -18 -9
-35 -20z"/>
<path d="M6030 1220 c0 -6 7 -10 15 -10 8 0 15 2 15 4 0 2 -7 6 -15 10 -8 3
-15 1 -15 -4z"/>
<path d="M6075 1220 c-3 -5 -1 -10 4 -10 6 0 11 5 11 10 0 6 -2 10 -4 10 -3 0
-8 -4 -11 -10z"/>
<path d="M6193 1211 c0 -11 5 -18 9 -15 4 3 5 11 1 19 -7 21 -12 19 -10 -4z"/>
<path d="M6480 1220 c-9 -6 -10 -10 -3 -10 6 0 15 5 18 10 8 12 4 12 -15 0z"/>
<path d="M6515 1222 c3 -3 -1 -12 -7 -21 -8 -10 -4 -9 10 3 26 23 26 23 7 23
-8 0 -13 -3 -10 -5z"/>
<path d="M7010 1219 c0 -5 5 -7 10 -4 6 3 10 8 10 11 0 2 -4 4 -10 4 -5 0 -10
-5 -10 -11z"/>
<path d="M7095 1220 c-3 -5 -1 -10 4 -10 6 0 11 5 11 10 0 6 -2 10 -4 10 -3 0
-8 -4 -11 -10z"/>
<path d="M7126 1222 c-3 -5 1 -9 9 -9 8 0 12 4 9 9 -3 4 -7 8 -9 8 -2 0 -6 -4
-9 -8z"/>
<path d="M7176 1222 c-3 -5 1 -9 9 -9 8 0 12 4 9 9 -3 4 -7 8 -9 8 -2 0 -6 -4
-9 -8z"/>
<path d="M2846 1205 c-18 -14 -18 -14 1 -12 11 0 20 7 20 14 0 7 -1 13 -1 13
-1 0 -9 -7 -20 -15z"/>
<path d="M2915 1210 c-4 -6 -10 -8 -14 -6 -4 3 -8 -1 -8 -9 0 -12 4 -12 21 2
12 10 23 19 25 20 2 2 -1 3 -7 3 -6 0 -14 -5 -17 -10z"/>
<path d="M4681 1217 c-2 -17 20 -47 30 -42 5 4 9 -3 9 -14 0 -24 16 -36 26
-20 4 7 3 9 -4 5 -6 -4 -12 3 -14 16 -2 13 -9 22 -17 20 -9 -2 -11 3 -7 13 3
9 2 14 -3 10 -5 -3 -12 1 -14 7 -3 7 -6 9 -6 5z"/>
<path d="M4781 1203 c-1 -13 -7 -22 -13 -20 -7 1 -13 -4 -13 -12 0 -8 6 -15
13 -17 7 -1 8 0 2 3 -5 2 -10 9 -10 14 0 6 5 7 10 4 12 -7 24 19 17 37 -3 7
-6 3 -6 -9z"/>
<path d="M4969 1203 c8 -16 7 -22 -5 -27 -9 -3 -20 -4 -25 0 -5 3 -9 3 -9 0 0
-3 10 -11 23 -17 12 -6 19 -8 15 -4 -4 4 -1 13 7 19 14 10 14 13 0 31 -16 20
-16 20 -6 -2z"/>
<path d="M5321 1217 c-2 -23 20 -45 41 -40 19 5 21 3 11 -8 -7 -7 -13 -17 -13
-23 0 -5 6 -1 14 9 18 24 10 38 -16 32 -14 -4 -18 -2 -14 9 3 8 2 13 -3 9 -5
-3 -12 1 -14 7 -3 7 -6 9 -6 5z"/>
<path d="M5551 1204 c0 -11 3 -14 6 -6 3 7 2 16 -1 19 -3 4 -6 -2 -5 -13z"/>
<path d="M6010 1210 c0 -5 -5 -9 -11 -7 -6 1 -14 -5 -16 -13 -4 -12 -3 -12 5
-2 5 8 13 13 18 12 5 -1 10 3 12 9 2 6 1 11 -2 11 -3 0 -6 -4 -6 -10z"/>
<path d="M6574 1209 c-3 -6 -2 -15 3 -20 5 -5 9 -1 9 11 0 23 -2 24 -12 9z"/>
<path d="M6622 1205 c15 -16 20 -17 30 -6 11 11 10 13 0 7 -7 -4 -21 -2 -30 5
-15 12 -15 11 0 -6z"/>
<path d="M2730 1201 c0 -6 4 -12 8 -15 5 -3 9 1 9 9 0 8 -4 15 -9 15 -4 0 -8
-4 -8 -9z"/>
<path d="M3013 1195 c0 -7 6 -11 14 -8 7 3 13 6 13 8 0 2 -6 5 -13 8 -8 3 -14
-1 -14 -8z"/>
<path d="M3147 1191 c-3 -13 -1 -18 9 -14 7 2 10 11 7 19 -7 19 -10 18 -16 -5z"/>
<path d="M3349 1193 c12 -8 25 -12 28 -9 4 3 1 6 -6 6 -7 0 -10 4 -7 8 2 4 -5
9 -16 9 -21 2 -21 2 1 -14z"/>
<path d="M3451 1194 c0 -11 3 -14 6 -6 3 7 2 16 -1 19 -3 4 -6 -2 -5 -13z"/>
<path d="M3510 1200 c0 -5 7 -7 15 -4 8 4 15 8 15 10 0 2 -7 4 -15 4 -8 0 -15
-4 -15 -10z"/>
<path d="M3594 1195 c-4 -8 -11 -12 -17 -8 -6 3 -7 1 -3 -5 9 -15 9 -15 29 8
9 11 12 20 7 20 -6 0 -13 -7 -16 -15z"/>
<path d="M3711 1193 c7 -12 15 -20 18 -17 3 2 -3 12 -13 22 -17 16 -18 16 -5
-5z"/>
<path d="M4160 1200 c-8 -5 -12 -11 -10 -14 3 -2 14 2 24 10 22 15 10 19 -14
4z"/>
<path d="M4350 1200 c0 -6 7 -10 15 -10 8 0 15 2 15 4 0 2 -7 6 -15 10 -8 3
-15 1 -15 -4z"/>
<path d="M5151 1194 c0 -11 3 -14 6 -6 3 7 2 16 -1 19 -3 4 -6 -2 -5 -13z"/>
<path d="M5241 1194 c0 -11 3 -14 6 -6 3 7 2 16 -1 19 -3 4 -6 -2 -5 -13z"/>
<path d="M5677 1190 c-9 -11 -13 -20 -7 -20 5 0 14 9 20 20 6 11 9 20 8 20 -2
0 -11 -9 -21 -20z"/>
<path d="M5745 1202 c8 -8 75 -9 75 -1 0 4 -18 6 -40 6 -22 -1 -37 -3 -35 -5z"/>
<path d="M5950 1205 c0 -5 5 -17 10 -25 5 -8 10 -10 10 -5 0 6 -5 17 -10 25
-5 8 -10 11 -10 5z"/>
<path d="M6117 1196 c-3 -8 0 -17 7 -19 10 -4 12 1 9 14 -6 23 -9 24 -16 5z"/>
<path d="M6536 1193 c-6 -14 -5 -15 5 -6 7 7 10 15 7 18 -3 3 -9 -2 -12 -12z"/>
<path d="M6708 1196 c4 -6 7 -14 7 -18 0 -19 11 -14 11 6 0 12 -6 23 -13 23
-6 0 -9 -5 -5 -11z"/>
<path d="M7250 1199 c0 -5 5 -7 10 -4 6 3 10 8 10 11 0 2 -4 4 -10 4 -5 0 -10
-5 -10 -11z"/>
<path d="M3235 1190 c-4 -6 1 -7 11 -3 13 5 15 3 9 -7 -5 -9 -4 -11 4 -6 6 4
9 12 6 17 -8 12 -22 12 -30 -1z"/>
<path d="M3396 1187 c3 -10 9 -15 12 -12 3 3 0 11 -7 18 -10 9 -11 8 -5 -6z"/>
<path d="M3630 1191 c0 -7 -5 -9 -12 -5 -7 5 -8 3 -3 -5 5 -9 10 -10 18 -2 6
6 8 14 4 18 -4 3 -7 1 -7 -6z"/>
<path d="M4236 1187 c3 -10 9 -15 12 -12 3 3 0 11 -7 18 -10 9 -11 8 -5 -6z"/>
<path d="M4630 1190 c0 -5 7 -7 15 -4 8 4 15 8 15 10 0 2 -7 4 -15 4 -8 0 -15
-4 -15 -10z"/>
<path d="M5398 1193 c7 -3 16 -2 19 1 4 3 -2 6 -13 5 -11 0 -14 -3 -6 -6z"/>
<path d="M5715 1190 c-3 -5 -1 -10 4 -10 6 0 11 5 11 10 0 6 -2 10 -4 10 -3 0
-8 -4 -11 -10z"/>
<path d="M2920 1175 c-7 -8 -17 -12 -24 -8 -6 3 -7 2 -3 -2 4 -5 15 -10 23
-11 9 -1 13 0 10 3 -3 4 -1 12 5 20 6 7 9 13 6 13 -2 0 -10 -7 -17 -15z"/>
<path d="M3276 1175 c-9 -26 -7 -32 5 -12 6 10 9 21 6 23 -2 3 -7 -2 -11 -11z"/>
<path d="M3323 1175 c-3 -9 -3 -19 1 -22 3 -4 6 1 6 11 0 10 5 14 12 10 7 -4
8 -3 4 4 -10 16 -15 15 -23 -3z"/>
<path d="M3470 1180 c0 -5 7 -7 15 -4 8 4 15 8 15 10 0 2 -7 4 -15 4 -8 0 -15
-4 -15 -10z"/>
<path d="M3700 1170 c6 -11 13 -20 16 -20 2 0 0 9 -6 20 -6 11 -13 20 -16 20
-2 0 0 -9 6 -20z"/>
<path d="M3776 1181 c-3 -5 2 -15 12 -22 16 -13 16 -12 3 4 -14 17 -13 18 5
15 10 -1 27 -14 36 -28 10 -14 18 -20 18 -15 -1 32 -61 68 -74 46z"/>
<path d="M3855 1179 c-4 -6 -4 -13 -1 -16 3 -4 6 -1 6 6 0 7 5 9 12 5 7 -4 8
-3 4 4 -9 15 -13 15 -21 1z"/>
<path d="M3925 1179 c-5 -8 -4 -10 3 -5 7 4 12 3 12 -3 0 -5 -6 -12 -12 -14
-10 -4 -10 -6 -1 -6 17 -1 27 19 15 31 -6 6 -12 6 -17 -3z"/>
<path d="M4179 1182 c-1 -4 -1 -11 0 -16 1 -4 -10 -5 -24 -2 -14 4 -25 2 -25
-2 0 -5 12 -9 28 -8 15 1 26 6 25 13 -2 6 6 11 17 10 14 -1 18 -6 15 -18 -7
-20 10 -35 21 -18 4 8 3 9 -4 5 -8 -5 -11 0 -9 15 1 16 -4 23 -20 25 -13 2
-24 1 -24 -4z"/>
<path d="M4296 1182 c-3 -5 2 -16 12 -23 15 -13 16 -12 3 4 -12 15 -11 17 7
17 15 0 19 -5 15 -19 -6 -22 12 -37 23 -20 5 8 3 9 -5 4 -9 -5 -12 0 -9 16 2
18 -2 25 -19 27 -11 2 -24 -1 -27 -6z"/>
<path d="M4413 1177 c-3 -5 -2 -11 1 -14 3 -4 6 -1 6 6 0 7 4 10 8 7 4 -2 14
-1 22 4 11 7 9 9 -8 7 -13 -1 -26 -5 -29 -10z"/>
<path d="M4673 1172 c0 -12 5 -22 9 -22 11 0 10 12 -2 30 -7 12 -9 10 -7 -8z"/>
<path d="M4796 1173 c-6 -14 -5 -15 5 -6 7 7 10 15 7 18 -3 3 -9 -2 -12 -12z"/>
<path d="M4856 1182 c-2 -4 2 -16 10 -27 8 -10 14 -14 14 -9 0 6 -6 16 -12 23
-11 11 -10 13 5 8 9 -4 17 -2 17 3 0 12 -27 13 -34 2z"/>
<path d="M5470 1180 c0 -5 8 -7 18 -3 14 5 15 3 5 -8 -7 -7 -13 -17 -13 -23 0
-5 6 -1 14 9 8 11 12 23 10 27 -7 11 -34 10 -34 -2z"/>
<path d="M5525 1179 c-5 -8 -4 -10 3 -5 8 5 12 -1 13 -16 1 -18 2 -19 6 -4 6
23 -12 43 -22 25z"/>
<path d="M5859 1188 c-7 -23 -4 -35 7 -35 8 0 14 4 14 9 0 4 -5 8 -11 8 -5 0
-7 5 -4 10 3 6 4 10 1 10 -3 0 -6 -1 -7 -2z"/>
<path d="M6044 1175 c-4 -8 -11 -12 -17 -8 -6 3 -7 1 -3 -5 10 -17 26 -15 26
4 0 9 5 12 12 8 7 -4 8 -3 4 4 -10 16 -15 15 -22 -3z"/>
<path d="M6325 1179 c-4 -6 -13 -8 -19 -6 -7 3 -13 -1 -13 -9 0 -8 3 -12 5 -9
3 3 15 -3 26 -12 20 -17 20 -17 7 0 -11 14 -11 20 -1 32 7 8 10 15 7 15 -3 0
-9 -5 -12 -11z"/>
<path d="M3113 1165 c0 -8 4 -12 9 -9 5 3 6 10 3 15 -9 13 -12 11 -12 -6z"/>
<path d="M4470 1169 c0 -5 -5 -7 -12 -3 -7 4 -8 3 -4 -4 4 -6 13 -9 21 -6 8 4
12 10 9 15 -7 12 -14 11 -14 -2z"/>
<path d="M5450 1171 c0 -6 4 -13 10 -16 6 -3 7 1 4 9 -7 18 -14 21 -14 7z"/>
<path d="M5787 1166 c-4 -11 -5 -21 -2 -24 3 -3 5 0 5 7 0 7 4 10 9 6 5 -3 13
0 17 6 4 7 3 9 -4 5 -5 -3 -12 -1 -14 6 -3 7 -7 5 -11 -6z"/>
<path d="M5922 1160 c7 -10 14 -18 15 -16 6 6 -9 36 -18 36 -5 0 -4 -9 3 -20z"/>
<path d="M6374 1169 c-3 -6 -2 -15 3 -20 5 -5 9 -1 9 11 0 23 -2 24 -12 9z"/>
<path d="M6495 1170 c-4 -6 -12 -7 -18 -4 -7 4 -9 4 -5 -1 4 -4 3 -13 -2 -20
-7 -8 -5 -12 5 -12 8 0 13 3 10 5 -3 3 2 14 12 24 9 10 13 18 10 18 -3 0 -9
-5 -12 -10z"/>
<path d="M3013 1153 c0 -10 4 -10 16 -1 9 7 18 13 20 15 2 1 -5 1 -16 0 -11 0
-20 -7 -20 -14z"/>
<path d="M3190 1159 c0 -5 5 -7 10 -4 6 3 10 8 10 11 0 2 -4 4 -10 4 -5 0 -10
-5 -10 -11z"/>
<path d="M3366 1158 c3 -5 10 -6 15 -3 13 9 11 12 -6 12 -8 0 -12 -4 -9 -9z"/>
<path d="M3428 1152 c4 -10 7 -12 10 -4 2 7 9 9 15 5 7 -3 8 -2 4 2 -14 16
-36 14 -29 -3z"/>
<path d="M3490 1155 c0 -8 2 -15 4 -15 2 0 6 7 10 15 3 8 1 15 -4 15 -6 0 -10
-7 -10 -15z"/>
<path d="M3516 1155 c-9 -26 -7 -32 5 -12 6 10 9 21 6 23 -2 3 -7 -2 -11 -11z"/>
<path d="M3552 1154 c-7 -8 -8 -14 -3 -14 10 0 25 19 20 25 -2 1 -10 -3 -17
-11z"/>
<path d="M3607 1159 c7 -7 15 -10 18 -7 3 3 -2 9 -12 12 -14 6 -15 5 -6 -5z"/>
<path d="M3735 1159 c-11 -16 -1 -19 13 -3 7 8 8 14 3 14 -5 0 -13 -5 -16 -11z"/>
<path d="M4035 1161 c3 -2 -3 -10 -13 -18 -16 -13 -15 -13 3 -4 43 22 51 30
28 28 -12 0 -20 -3 -18 -6z"/>
<path d="M4257 1156 c-3 -8 -3 -17 0 -20 10 -10 33 -7 33 4 0 5 -8 6 -17 3
-16 -6 -16 -5 -4 10 7 9 9 17 3 17 -5 0 -12 -6 -15 -14z"/>
<path d="M4368 1162 c8 -5 13 -13 12 -18 0 -5 6 -10 14 -12 9 -2 16 1 16 7 0
6 -7 8 -15 4 -10 -3 -15 -1 -13 7 2 7 -4 15 -12 17 -12 4 -12 3 -2 -5z"/>
<path d="M4550 1160 c0 -5 5 -10 10 -10 6 0 10 5 10 10 0 6 -4 10 -10 10 -5 0
-10 -4 -10 -10z"/>
<path d="M4638 1163 c7 -3 16 -2 19 1 4 3 -2 6 -13 5 -11 0 -14 -3 -6 -6z"/>
<path d="M4820 1160 c0 -5 5 -10 10 -10 6 0 10 5 10 10 0 6 -4 10 -10 10 -5 0
-10 -4 -10 -10z"/>
<path d="M4910 1160 c0 -5 5 -10 11 -10 5 0 7 5 4 10 -3 6 -8 10 -11 10 -2 0
-4 -4 -4 -10z"/>
<path d="M5040 1160 c8 -5 20 -10 25 -10 6 0 3 5 -5 10 -8 5 -19 10 -25 10 -5
0 -3 -5 5 -10z"/>
<path d="M5100 1160 c-9 -6 -10 -10 -3 -10 6 0 15 5 18 10 8 12 4 12 -15 0z"/>
<path d="M5130 1162 c0 -4 11 -8 25 -8 28 0 24 8 -5 13 -11 2 -20 -1 -20 -5z"/>
<path d="M5250 1160 c0 -5 5 -10 10 -10 6 0 10 5 10 10 0 6 -4 10 -10 10 -5 0
-10 -4 -10 -10z"/>
<path d="M5400 1160 c0 -5 5 -10 11 -10 5 0 7 -5 3 -12 -4 -7 -3 -8 4 -4 6 4
9 13 5 21 -6 17 -23 20 -23 5z"/>
<path d="M5566 1157 c3 -10 9 -15 12 -12 3 3 0 11 -7 18 -10 9 -11 8 -5 -6z"/>
<path d="M5690 1159 c0 -5 4 -8 9 -4 5 3 12 1 16 -5 3 -5 11 -10 18 -10 6 0 2
7 -9 15 -23 17 -34 19 -34 4z"/>
<path d="M6535 1162 c3 -3 19 -6 35 -7 16 -1 27 1 24 4 -3 3 -19 6 -35 7 -16
1 -27 -1 -24 -4z"/>
<path d="M7553 1155 c0 -8 4 -12 9 -9 5 3 6 10 3 15 -9 13 -12 11 -12 -6z"/>
<path d="M4436 1147 c3 -10 9 -15 12 -12 3 3 0 11 -7 18 -10 9 -11 8 -5 -6z"/>
<path d="M4520 1148 c9 -7 14 -21 12 -30 -5 -25 4 -23 11 2 4 14 -1 23 -16 31
-19 9 -20 8 -7 -3z"/>
<path d="M4584 1144 c-18 -14 -18 -15 4 -4 12 6 22 13 22 15 0 8 -5 6 -26 -11z"/>
<path d="M5755 1151 c-3 -5 -2 -12 3 -15 5 -3 9 1 9 9 0 17 -3 19 -12 6z"/>
<path d="M5953 1145 c0 -8 4 -12 9 -9 5 3 6 10 3 15 -9 13 -12 11 -12 -6z"/>
<path d="M2613 1135 c0 -8 4 -12 9 -9 5 3 6 10 3 15 -9 13 -12 11 -12 -6z"/>
<path d="M3043 1138 c-11 -19 -13 -39 -1 -32 5 3 7 9 4 12 -3 3 -1 11 5 19 6
7 9 13 6 13 -3 0 -9 -6 -14 -12z"/>
<path d="M3075 1142 c3 -3 -1 -12 -7 -21 -8 -10 -4 -9 10 3 26 23 26 23 7 23
-8 0 -13 -3 -10 -5z"/>
<path d="M3693 1143 c4 -3 -1 -12 -11 -20 -15 -13 -15 -13 6 -3 19 9 23 30 5
30 -4 0 -3 -3 0 -7z"/>
<path d="M3750 1145 c0 -5 5 -17 10 -25 5 -8 10 -10 10 -5 0 6 -5 17 -10 25
-5 8 -10 11 -10 5z"/>
<path d="M3770 1146 c0 -3 9 -10 20 -16 11 -6 20 -8 20 -6 0 3 -9 10 -20 16
-11 6 -20 8 -20 6z"/>
<path d="M3821 1130 c7 -14 12 -28 11 -32 -1 -5 3 -8 8 -8 15 0 12 12 -11 40
l-20 25 12 -25z"/>
<path d="M3950 1141 c0 -10 29 -36 34 -30 1 2 -6 12 -16 22 -10 9 -18 13 -18
8z"/>
<path d="M4056 1141 c-4 -5 -1 -13 5 -17 8 -4 9 -3 5 4 -4 7 -3 12 3 12 5 0
12 -5 14 -10 3 -6 4 -5 3 2 -3 16 -23 22 -30 9z"/>
<path d="M4488 1143 c6 -2 9 -10 6 -15 -4 -7 -2 -8 5 -4 13 9 5 26 -12 25 -9
0 -8 -2 1 -6z"/>
<path d="M4615 1141 c-3 -5 0 -13 6 -17 7 -4 9 -3 5 4 -3 5 0 13 6 15 9 4 10
6 1 6 -6 1 -14 -3 -18 -8z"/>
<path d="M4654 1142 c3 -5 0 -13 -6 -15 -9 -4 -10 -6 -1 -6 17 -1 25 16 12 25
-7 4 -9 3 -5 -4z"/>
<path d="M4686 1125 c-9 -14 -13 -25 -8 -25 5 0 14 11 20 25 6 14 10 25 8 25
-2 0 -11 -11 -20 -25z"/>
<path d="M4793 1135 c0 -8 4 -12 9 -9 4 3 8 9 8 15 0 5 -4 9 -8 9 -5 0 -9 -7
-9 -15z"/>
<path d="M4927 1126 c-14 -21 -14 -25 -2 -30 8 -3 17 0 21 6 5 7 2 8 -6 3 -10
-6 -12 -4 -7 9 4 10 7 20 7 22 0 3 5 2 12 -2 7 -4 8 -3 4 4 -10 16 -11 15 -29
-12z"/>
<path d="M4988 1143 c7 -3 16 -2 19 1 4 3 -2 6 -13 5 -11 0 -14 -3 -6 -6z"/>
<path d="M5037 1130 c10 -11 19 -20 21 -20 1 0 -2 9 -8 20 -6 11 -15 20 -20
20 -6 0 -2 -9 7 -20z"/>
<path d="M5313 1143 c4 -3 1 -13 -6 -22 -11 -14 -10 -14 6 -2 20 15 22 31 5
31 -6 0 -8 -3 -5 -7z"/>
<path d="M5432 1130 c-18 -29 -15 -38 4 -12 9 13 14 25 12 27 -2 2 -9 -5 -16
-15z"/>
<path d="M5590 1139 c0 -5 5 -7 10 -4 6 3 10 8 10 11 0 2 -4 4 -10 4 -5 0 -10
-5 -10 -11z"/>
<path d="M5654 1138 c-5 -7 -2 -8 6 -3 10 6 12 4 7 -9 -4 -10 -3 -15 4 -11 5
4 17 1 26 -7 15 -12 15 -11 2 9 -16 27 -36 36 -45 21z"/>
<path d="M6076 1138 c3 -5 10 -6 15 -3 13 9 11 12 -6 12 -8 0 -12 -4 -9 -9z"/>
<path d="M6224 1142 c4 -3 14 -7 22 -8 9 -1 13 0 10 4 -4 3 -14 7 -22 8 -9 1
-13 0 -10 -4z"/>
<path d="M6627 1139 c7 -7 15 -10 18 -7 3 3 -2 9 -12 12 -14 6 -15 5 -6 -5z"/>
<path d="M6713 1135 c0 -8 4 -12 9 -9 5 3 6 10 3 15 -9 13 -12 11 -12 -6z"/>
<path d="M2890 1136 c0 -2 8 -10 18 -17 15 -13 16 -12 3 4 -13 16 -21 21 -21
13z"/>
<path d="M3585 1122 c-3 -9 -3 -13 1 -10 4 4 15 3 25 -3 24 -13 24 -8 0 13
-18 15 -20 15 -26 0z"/>
<path d="M3642 1120 c7 -10 14 -18 15 -16 6 6 -9 36 -18 36 -5 0 -4 -9 3 -20z"/>
<path d="M4119 1133 c-6 -41 -2 -80 8 -80 7 0 9 8 3 21 -4 12 -6 31 -4 44 2
12 2 22 -1 22 -3 0 -5 -3 -6 -7z"/>
<path d="M4302 1132 c2 -8 7 -13 12 -12 5 1 13 -4 18 -12 8 -11 9 -11 6 0 -2
8 -7 13 -12 12 -5 -1 -13 4 -18 12 -8 11 -9 11 -6 0z"/>
<path d="M4417 1126 c-5 -12 -3 -15 5 -10 8 5 9 1 4 -12 -5 -14 -4 -16 4 -7 8
7 9 17 3 28 -9 16 -10 16 -16 1z"/>
<path d="M5112 1124 c-7 -8 -8 -14 -3 -14 10 0 25 19 20 25 -2 1 -10 -3 -17
-11z"/>
<path d="M5267 1127 c-3 -8 1 -14 8 -14 7 0 11 6 8 14 -3 7 -6 13 -8 13 -2 0
-5 -6 -8 -13z"/>
<path d="M6015 1131 c-3 -6 -14 -8 -25 -6 -11 2 -22 0 -24 -4 -8 -13 43 -6 56
7 7 7 9 12 6 12 -4 0 -9 -4 -13 -9z"/>
<path d="M6062 1124 c10 -10 20 -16 22 -13 3 3 -5 11 -17 18 -21 13 -21 12 -5
-5z"/>
<path d="M6302 1124 c10 -10 20 -16 22 -13 3 3 -5 11 -17 18 -21 13 -21 12 -5
-5z"/>
<path d="M6410 1136 c0 -2 8 -10 18 -17 15 -13 16 -12 3 4 -13 16 -21 21 -21
13z"/>
<path d="M6536 1127 c3 -10 9 -15 12 -12 3 3 0 11 -7 18 -10 9 -11 8 -5 -6z"/>
<path d="M2490 1126 c0 -2 7 -7 16 -10 8 -3 12 -2 9 4 -6 10 -25 14 -25 6z"/>
<path d="M2675 1120 c-3 -5 -1 -10 4 -10 6 0 11 5 11 10 0 6 -2 10 -4 10 -3 0
-8 -4 -11 -10z"/>
<path d="M3250 1121 c0 -6 4 -13 10 -16 6 -3 7 1 4 9 -7 18 -14 21 -14 7z"/>
<path d="M3290 1122 c0 -5 7 -9 15 -9 8 0 12 4 9 9 -3 4 -9 8 -15 8 -5 0 -9
-4 -9 -8z"/>
<path d="M3395 1120 c3 -5 8 -10 11 -10 2 0 4 5 4 10 0 6 -5 10 -11 10 -5 0
-7 -4 -4 -10z"/>
<path d="M3550 1121 c0 -6 4 -13 10 -16 6 -3 7 1 4 9 -7 18 -14 21 -14 7z"/>
<path d="M3860 1119 c0 -5 5 -7 10 -4 6 3 10 8 10 11 0 2 -4 4 -10 4 -5 0 -10
-5 -10 -11z"/>
<path d="M4025 1119 c-4 -6 -4 -13 -1 -16 3 -4 6 -1 6 6 0 7 5 9 12 5 7 -4 8
-3 4 4 -9 15 -13 15 -21 1z"/>
<path d="M4186 1122 c-2 -4 4 -8 14 -8 10 0 16 4 14 8 -3 4 -9 8 -14 8 -5 0
-11 -4 -14 -8z"/>
<path d="M4236 1122 c-3 -4 4 -9 15 -9 23 -2 25 3 4 10 -8 4 -16 3 -19 -1z"/>
<path d="M4355 1120 c-3 -5 -1 -10 4 -10 6 0 11 5 11 10 0 6 -2 10 -4 10 -3 0
-8 -4 -11 -10z"/>
<path d="M4585 1119 c-4 -6 -4 -13 -1 -16 3 -4 6 -1 6 6 0 7 5 9 12 5 7 -4 8
-3 4 4 -9 15 -13 15 -21 1z"/>
<path d="M4753 1115 c0 -7 7 -11 15 -7 11 4 13 1 7 -8 -5 -9 -4 -11 3 -6 16
10 15 14 -6 25 -14 7 -19 6 -19 -4z"/>
<path d="M4832 1121 c-11 -6 -10 -10 4 -15 9 -3 19 -4 22 -1 3 3 0 5 -7 5 -7
0 -9 5 -6 10 7 12 4 12 -13 1z"/>
<path d="M4975 1120 c3 -5 8 -10 11 -10 2 0 4 5 4 10 0 6 -5 10 -11 10 -5 0
-7 -4 -4 -10z"/>
<path d="M5005 1120 c-3 -6 1 -7 9 -4 18 7 21 14 7 14 -6 0 -13 -4 -16 -10z"/>
<path d="M5350 1110 c6 -11 13 -20 16 -20 2 0 0 9 -6 20 -6 11 -13 20 -16 20
-2 0 0 -9 6 -20z"/>
<path d="M5370 1118 c0 -4 4 -8 9 -8 6 0 12 4 15 8 3 5 -1 9 -9 9 -8 0 -15 -4
-15 -9z"/>
<path d="M5456 1114 c-3 -7 3 -10 15 -7 26 7 32 19 9 19 -11 0 -22 -6 -24 -12z"/>
<path d="M5547 1111 c-3 -13 -1 -18 9 -14 7 2 10 11 7 19 -7 19 -10 18 -16 -5z"/>
<path d="M5620 1120 c18 -11 20 -27 8 -55 -8 -18 -8 -19 5 -3 11 14 17 15 28
5 7 -7 5 -2 -5 11 -11 12 -16 22 -11 22 4 0 2 7 -5 15 -7 8 -18 15 -24 15 -6
0 -4 -5 4 -10z"/>
<path d="M5725 1120 c-3 -6 1 -7 9 -4 18 7 21 14 7 14 -6 0 -13 -4 -16 -10z"/>
<path d="M5824 1111 c0 -11 5 -17 13 -14 10 4 11 9 2 19 -15 18 -15 18 -15 -5z"/>
<path d="M6366 1122 c-3 -5 1 -9 9 -9 8 0 12 4 9 9 -3 4 -7 8 -9 8 -2 0 -6 -4
-9 -8z"/>
<path d="M6680 1120 c-9 -6 -10 -10 -3 -10 6 0 15 5 18 10 8 12 4 12 -15 0z"/>
<path d="M7019 1128 c-5 -18 -6 -38 -1 -34 7 8 12 36 6 36 -2 0 -4 -1 -5 -2z"/>
<path d="M2993 1107 c0 -8 6 -14 14 -14 9 0 10 4 2 14 -6 7 -12 13 -14 13 -1
0 -2 -6 -2 -13z"/>
<path d="M3917 1113 c-4 -6 0 -13 8 -17 8 -3 17 0 21 6 4 6 3 8 -4 4 -5 -3
-12 -1 -14 6 -3 8 -6 9 -11 1z"/>
<path d="M4141 1117 c2 -1 12 -9 22 -16 15 -12 17 -12 11 3 -3 9 -13 16 -22
16 -8 0 -13 -1 -11 -3z"/>
<path d="M5177 1113 c-3 -5 8 -8 23 -8 15 0 26 3 23 8 -2 4 -13 7 -23 7 -10 0
-21 -3 -23 -7z"/>
<path d="M6027 1107 c-3 -7 3 -13 14 -13 13 0 15 3 7 13 -6 7 -12 13 -13 13
-2 0 -5 -6 -8 -13z"/>
<path d="M2616 1102 c-3 -5 1 -9 9 -9 8 0 12 4 9 9 -3 4 -7 8 -9 8 -2 0 -6 -4
-9 -8z"/>
<path d="M2920 1100 c-9 -6 -10 -10 -3 -10 6 0 15 5 18 10 8 12 4 12 -15 0z"/>
<path d="M3079 1108 c-5 -18 -6 -39 -2 -34 4 3 13 0 22 -6 12 -10 12 -7 -2 8
-9 11 -14 24 -10 27 3 4 3 7 0 7 -4 0 -7 -1 -8 -2z"/>
<path d="M3789 1094 c6 -12 7 -25 3 -30 -4 -5 0 -3 10 4 11 9 18 9 21 2 4 -7
5 -7 4 1 -2 6 -6 9 -9 7 -4 -2 -14 6 -23 17 -16 20 -16 20 -6 -1z"/>
<path d="M4057 1103 c-3 -5 -1 -17 3 -27 6 -17 7 -18 13 -3 3 9 2 17 -4 17 -6
0 -7 5 -4 10 3 6 4 10 1 10 -3 0 -7 -3 -9 -7z"/>
<path d="M4494 1103 c7 -13 -4 -17 -31 -14 -7 1 -13 -4 -13 -10 0 -7 3 -9 7
-6 3 4 13 1 21 -6 13 -10 14 -9 7 2 -6 11 -4 13 7 8 17 -6 19 16 3 30 -4 4 -5
2 -1 -4z"/>
<path d="M4619 1108 c-8 -26 -5 -36 9 -31 11 5 13 3 7 -7 -5 -9 -4 -11 3 -6
17 10 15 26 -4 26 -8 0 -12 5 -9 10 3 6 4 10 1 10 -3 0 -6 -1 -7 -2z"/>
<path d="M4956 1095 c-9 -26 -7 -32 5 -12 6 10 9 21 6 23 -2 3 -7 -2 -11 -11z"/>
<path d="M5074 1082 c1 -16 6 -29 13 -29 8 0 9 7 3 23 -5 12 -6 25 -3 28 4 3
2 6 -4 6 -6 0 -10 -13 -9 -28z"/>
<path d="M5153 1091 c0 -11 5 -18 9 -15 4 3 5 11 1 19 -7 21 -12 19 -10 -4z"/>
<path d="M5233 1092 c-8 -14 -8 -19 1 -19 7 0 13 9 13 19 2 23 1 23 -14 0z"/>
<path d="M5508 1094 c8 -15 8 -25 -1 -35 -6 -8 -3 -6 8 4 19 16 19 18 1 35
-18 16 -18 16 -8 -4z"/>
<path d="M5868 1103 c7 -3 16 -2 19 1 4 3 -2 6 -13 5 -11 0 -14 -3 -6 -6z"/>
<path d="M6145 1099 c-3 -4 2 -6 10 -5 21 3 28 13 10 13 -9 0 -18 -4 -20 -8z"/>
<path d="M6935 1100 c-3 -5 -1 -10 4 -10 6 0 11 5 11 10 0 6 -2 10 -4 10 -3 0
-8 -4 -11 -10z"/>
<path d="M3294 1086 c1 -8 5 -18 8 -22 4 -3 5 1 4 10 -1 8 -5 18 -8 22 -4 3
-5 -1 -4 -10z"/>
<path d="M3525 1091 c-11 -5 -23 -7 -27 -5 -4 3 -9 0 -13 -5 -7 -12 46 -3 60
10 11 11 7 11 -20 0z"/>
<path d="M3949 1083 c-13 -16 -12 -17 4 -4 16 13 21 21 13 21 -2 0 -10 -8 -17
-17z"/>
<path d="M3988 1093 c7 -3 16 -2 19 1 4 3 -2 6 -13 5 -11 0 -14 -3 -6 -6z"/>
<path d="M4228 1093 c7 -3 16 -2 19 1 4 3 -2 6 -13 5 -11 0 -14 -3 -6 -6z"/>
<path d="M4290 1090 c-9 -6 -10 -10 -3 -10 6 0 15 5 18 10 8 12 4 12 -15 0z"/>
<path d="M5011 1093 c-1 -17 16 -25 25 -12 4 7 3 9 -4 5 -5 -3 -13 0 -15 6 -4
9 -6 10 -6 1z"/>
<path d="M5714 1089 c-3 -6 2 -18 12 -27 17 -16 17 -16 5 0 -7 9 -10 22 -6 28
3 5 4 10 1 10 -3 0 -8 -5 -12 -11z"/>
<path d="M5894 1089 c-3 -6 -2 -15 3 -20 5 -5 9 -1 9 11 0 23 -2 24 -12 9z"/>
<path d="M5979 1098 c-5 -18 -6 -38 -1 -34 7 8 12 36 6 36 -2 0 -4 -1 -5 -2z"/>
<path d="M6085 1080 c-10 -11 -15 -20 -10 -20 4 0 2 -6 -4 -13 -8 -10 -7 -14
3 -14 8 0 13 7 11 16 -1 9 4 24 13 34 8 9 13 17 10 17 -3 0 -13 -9 -23 -20z"/>
<path d="M6514 1086 c1 -8 5 -18 8 -22 4 -3 5 1 4 10 -1 8 -5 18 -8 22 -4 3
-5 -1 -4 -10z"/>
<path d="M7155 1091 c-3 -5 -2 -12 3 -15 5 -3 9 1 9 9 0 17 -3 19 -12 6z"/>
<path d="M2340 1086 c0 -2 8 -10 18 -17 15 -13 16 -12 3 4 -13 16 -21 21 -21
13z"/>
<path d="M2716 1082 c-3 -5 1 -9 9 -9 8 0 12 4 9 9 -3 4 -7 8 -9 8 -2 0 -6 -4
-9 -8z"/>
<path d="M3225 1081 c3 -3 17 -6 31 -7 13 0 22 2 19 5 -3 3 -17 6 -31 7 -13 0
-22 -2 -19 -5z"/>
<path d="M3350 1079 c0 -5 5 -7 10 -4 6 3 10 8 10 11 0 2 -4 4 -10 4 -5 0 -10
-5 -10 -11z"/>
<path d="M3404 1079 c-3 -6 -2 -15 3 -20 5 -5 9 -1 9 11 0 23 -2 24 -12 9z"/>
<path d="M3875 1081 c-3 -5 -2 -12 3 -15 5 -3 9 1 9 9 0 17 -3 19 -12 6z"/>
<path d="M4033 1075 c0 -8 4 -12 9 -9 5 3 6 10 3 15 -9 13 -12 11 -12 -6z"/>
<path d="M4316 1082 c-3 -5 1 -9 9 -9 8 0 12 4 9 9 -3 4 -7 8 -9 8 -2 0 -6 -4
-9 -8z"/>
<path d="M4395 1080 c3 -5 8 -10 11 -10 2 0 4 5 4 10 0 6 -5 10 -11 10 -5 0
-7 -4 -4 -10z"/>
<path d="M4784 1079 c-5 -8 -3 -9 6 -4 7 4 16 2 22 -6 8 -12 9 -12 6 0 -6 20
-24 25 -34 10z"/>
<path d="M5347 1079 c7 -7 15 -10 18 -7 3 3 -2 9 -12 12 -14 6 -15 5 -6 -5z"/>
<path d="M5395 1079 c-3 -4 2 -6 10 -5 21 3 28 13 10 13 -9 0 -18 -4 -20 -8z"/>
<path d="M5596 1079 c2 -4 -2 -10 -8 -12 -10 -4 -9 -6 1 -6 11 -1 10 -6 -5
-23 l-19 -23 23 19 c12 11 20 21 17 24 -3 3 0 10 5 17 7 8 5 12 -5 12 -8 0
-12 -4 -9 -8z"/>
<path d="M5755 1080 c-3 -5 -1 -10 4 -10 6 0 11 5 11 10 0 6 -2 10 -4 10 -3 0
-8 -4 -11 -10z"/>
<path d="M6179 1073 c-13 -16 -12 -17 4 -4 9 7 17 15 17 17 0 8 -8 3 -21 -13z"/>
<path d="M6675 1080 c3 -5 8 -10 11 -10 2 0 4 5 4 10 0 6 -5 10 -11 10 -5 0
-7 -4 -4 -10z"/>
<path d="M4240 1071 c0 -6 4 -13 10 -16 6 -3 7 1 4 9 -7 18 -14 21 -14 7z"/>
<path d="M5274 1066 c1 -8 5 -18 8 -22 4 -3 5 1 4 10 -1 8 -5 18 -8 22 -4 3
-5 -1 -4 -10z"/>
<path d="M6310 1076 c0 -2 8 -10 18 -17 15 -13 16 -12 3 4 -13 16 -21 21 -21
13z"/>
<path d="M6815 1071 c-3 -5 -2 -12 3 -15 5 -3 9 1 9 9 0 17 -3 19 -12 6z"/>
<path d="M2655 1059 c-3 -4 2 -6 10 -5 21 3 28 13 10 13 -9 0 -18 -4 -20 -8z"/>
<path d="M2770 1060 c0 -5 5 -10 11 -10 5 0 7 5 4 10 -3 6 -8 10 -11 10 -2 0
-4 -4 -4 -10z"/>
<path d="M3516 1062 c-3 -5 1 -9 9 -9 8 0 12 4 9 9 -3 4 -7 8 -9 8 -2 0 -6 -4
-9 -8z"/>
<path d="M3560 1060 c-9 -6 -10 -10 -3 -10 6 0 15 5 18 10 8 12 4 12 -15 0z"/>
<path d="M3682 1057 c-8 -9 -6 -16 7 -24 14 -9 18 -8 18 3 0 7 -5 10 -10 7 -6
-4 -8 0 -4 10 8 20 3 22 -11 4z"/>
<path d="M3965 1062 c-6 -4 -10 -22 -11 -39 0 -18 2 -31 4 -28 3 3 12 -1 21
-7 13 -10 13 -9 -1 7 -19 23 -20 33 -7 58 11 19 9 21 -6 9z"/>
<path d="M4162 1062 c-10 -7 -8 -12 6 -25 15 -14 19 -14 19 -2 0 8 -5 11 -10
8 -6 -4 -8 0 -4 10 7 19 7 20 -11 9z"/>
<path d="M4428 1052 c10 -21 9 -52 -2 -72 -7 -12 -6 -13 5 -2 18 16 19 80 2
86 -10 4 -11 1 -5 -12z"/>
<path d="M4685 1062 c-13 -9 -15 -52 -3 -52 5 0 8 6 5 13 -2 6 0 20 5 30 10
19 8 21 -7 9z"/>
<path d="M4905 1063 c16 -12 12 -52 -5 -63 -8 -5 -10 -10 -4 -10 30 0 42 70
14 77 -9 3 -11 1 -5 -4z"/>
<path d="M5308 1063 c6 -3 10 -9 6 -14 -8 -14 2 -11 14 4 8 10 6 13 -11 14
-12 0 -16 -1 -9 -4z"/>
<path d="M5434 1035 c0 -19 2 -32 5 -29 8 8 10 64 2 64 -4 0 -7 -16 -7 -35z"/>
<path d="M5555 1061 c-3 -5 -2 -12 3 -15 5 -3 9 1 9 9 0 17 -3 19 -12 6z"/>
<path d="M3613 1045 c0 -8 3 -13 5 -10 3 3 12 -1 21 -7 10 -8 9 -4 -3 10 -23
26 -23 26 -23 7z"/>
<path d="M4331 1053 c-1 -17 16 -25 25 -12 4 7 3 9 -4 5 -5 -3 -13 0 -15 6 -4
9 -6 10 -6 1z"/>
<path d="M4535 1050 c-4 -6 -11 -8 -16 -5 -5 4 -9 4 -9 1 0 -3 8 -10 18 -15
14 -7 18 -6 18 10 0 22 -2 23 -11 9z"/>
<path d="M4574 1039 c0 -14 3 -16 16 -6 8 6 16 12 18 13 1 1 -5 4 -15 6 -13 4
-19 0 -19 -13z"/>
<path d="M4780 1051 c0 -7 -5 -9 -12 -5 -7 5 -8 3 -3 -5 5 -9 10 -10 18 -2 6
6 8 14 4 18 -4 3 -7 1 -7 -6z"/>
<path d="M5012 1051 c-11 -6 -10 -10 0 -19 11 -8 14 -7 14 9 0 10 0 19 -1 19
0 0 -6 -4 -13 -9z"/>
<path d="M5118 1053 c7 -3 16 -2 19 1 4 3 -2 6 -13 5 -11 0 -14 -3 -6 -6z"/>
<path d="M5238 1053 c7 -3 16 -2 19 1 4 3 -2 6 -13 5 -11 0 -14 -3 -6 -6z"/>
<path d="M5693 1045 c0 -8 3 -13 5 -10 3 3 12 -1 21 -7 10 -8 9 -4 -3 10 -23
26 -23 26 -23 7z"/>
<path d="M5804 1038 l-19 -23 23 19 c12 11 22 21 22 23 0 8 -8 2 -26 -19z"/>
<path d="M5884 1042 c23 -26 23 -26 23 -7 0 8 -3 13 -5 10 -3 -3 -12 1 -21 7
-10 8 -9 4 3 -10z"/>
<path d="M6235 1051 c-3 -5 -2 -12 3 -15 5 -3 9 1 9 9 0 17 -3 19 -12 6z"/>
<path d="M2830 1039 c0 -5 5 -7 10 -4 6 3 10 8 10 11 0 2 -4 4 -10 4 -5 0 -10
-5 -10 -11z"/>
<path d="M3073 1033 c0 -9 4 -10 14 -2 7 6 13 12 13 14 0 1 -6 2 -13 2 -8 0
-14 -6 -14 -14z"/>
<path d="M3150 1046 c0 -2 7 -7 16 -10 8 -3 12 -2 9 4 -6 10 -25 14 -25 6z"/>
<path d="M3373 1033 c0 -9 4 -10 14 -2 7 6 13 12 13 14 0 1 -6 2 -13 2 -8 0
-14 -6 -14 -14z"/>
<path d="M3751 1027 c-13 -21 -12 -21 5 -5 10 10 16 20 13 22 -3 3 -11 -5 -18
-17z"/>
<path d="M3806 1038 c3 -5 10 -6 15 -3 13 9 11 12 -6 12 -8 0 -12 -4 -9 -9z"/>
<path d="M3856 1038 c3 -5 10 -6 15 -3 13 9 11 12 -6 12 -8 0 -12 -4 -9 -9z"/>
<path d="M4079 1043 c-5 -36 -5 -62 -1 -58 7 7 12 65 6 65 -2 0 -4 -3 -5 -7z"/>
<path d="M4370 1042 c0 -5 7 -9 15 -9 8 0 12 4 9 9 -3 4 -9 8 -15 8 -5 0 -9
-4 -9 -8z"/>
<path d="M4474 1028 l-19 -23 23 19 c21 18 27 26 19 26 -2 0 -12 -10 -23 -22z"/>
<path d="M4635 1030 c10 -11 20 -20 23 -20 3 0 -3 9 -13 20 -10 11 -20 20 -23
20 -3 0 3 -9 13 -20z"/>
<path d="M4726 1042 c-3 -5 1 -9 9 -9 8 0 15 4 15 9 0 4 -4 8 -9 8 -6 0 -12
-4 -15 -8z"/>
<path d="M4850 1038 c0 -4 4 -8 9 -8 6 0 12 4 15 8 3 5 -1 9 -9 9 -8 0 -15 -4
-15 -9z"/>
<path d="M4954 1028 c-19 -23 -19 -23 2 -5 11 9 24 14 27 10 4 -3 7 -1 7 5 0
19 -15 14 -36 -10z"/>
<path d="M5190 1040 c0 -5 5 -10 10 -10 6 0 10 5 10 10 0 6 -4 10 -10 10 -5 0
-10 -4 -10 -10z"/>
<path d="M5640 1045 c0 -2 6 -8 13 -14 10 -8 14 -7 14 2 0 8 -6 14 -14 14 -7
0 -13 -1 -13 -2z"/>
<path d="M6296 1038 c3 -5 10 -6 15 -3 13 9 11 12 -6 12 -8 0 -12 -4 -9 -9z"/>
<path d="M6670 1046 c0 -2 7 -7 16 -10 8 -3 12 -2 9 4 -6 10 -25 14 -25 6z"/>
<path d="M6975 1040 c3 -5 8 -10 11 -10 2 0 4 5 4 10 0 6 -5 10 -11 10 -5 0
-7 -4 -4 -10z"/>
<path d="M4109 1023 c-13 -16 -12 -17 4 -4 16 13 21 21 13 21 -2 0 -10 -8 -17
-17z"/>
<path d="M4270 1030 c-9 -6 -10 -10 -3 -10 6 0 15 5 18 10 8 12 4 12 -15 0z"/>
<path d="M5069 1023 c-13 -16 -12 -17 4 -4 16 13 21 21 13 21 -2 0 -10 -8 -17
-17z"/>
<path d="M5150 1036 c0 -2 8 -10 18 -17 15 -13 16 -12 3 4 -13 16 -21 21 -21
13z"/>
<path d="M5229 1023 c-13 -16 -12 -17 4 -4 9 7 17 15 17 17 0 8 -8 3 -21 -13z"/>
<path d="M5469 1023 c-13 -16 -12 -17 4 -4 9 7 17 15 17 17 0 8 -8 3 -21 -13z"/>
<path d="M2696 1022 c-2 -4 -1 -14 4 -22 7 -11 9 -9 7 8 -1 24 -3 26 -11 14z"/>
<path d="M2775 1019 c-3 -4 2 -6 10 -5 21 3 28 13 10 13 -9 0 -18 -4 -20 -8z"/>
<path d="M3660 1026 c0 -2 8 -10 18 -17 15 -13 16 -12 3 4 -13 16 -21 21 -21
13z"/>
<path d="M4519 1007 c29 -32 28 -31 28 -12 0 8 -3 13 -5 10 -3 -3 -15 3 -26
12 -15 13 -14 10 3 -10z"/>
<path d="M4602 1018 c-15 -15 -15 -28 0 -28 6 0 8 3 5 7 -4 3 -2 12 4 20 14
16 7 17 -9 1z"/>
<path d="M5313 1015 c0 -8 4 -12 9 -9 4 3 8 9 8 15 0 5 -4 9 -8 9 -5 0 -9 -7
-9 -15z"/>
<path d="M5750 1016 c7 -7 13 -7 20 0 6 6 3 10 -10 10 -13 0 -16 -4 -10 -10z"/>
<path d="M5961 1016 c-9 -11 -9 -16 1 -22 7 -4 10 -4 6 1 -4 4 -3 14 3 22 6 7
9 13 6 13 -2 0 -10 -6 -16 -14z"/>
<path d="M6200 1020 c-9 -6 -10 -10 -3 -10 6 0 15 5 18 10 8 12 4 12 -15 0z"/>
<path d="M6714 1022 c4 -3 14 -7 22 -8 9 -1 13 0 10 4 -4 3 -14 7 -22 8 -9 1
-13 0 -10 -4z"/>
<path d="M6813 1009 c-2 -23 3 -25 10 -4 4 8 3 16 -1 19 -4 3 -9 -4 -9 -15z"/>
<path d="M3617 1010 c7 -8 20 -15 29 -16 9 -1 13 1 9 4 -4 4 -10 7 -13 7 -4 0
-14 4 -22 9 -12 7 -13 6 -3 -4z"/>
<path d="M4164 1002 c23 -26 23 -26 23 -7 0 8 -3 13 -5 10 -3 -3 -12 1 -21 7
-10 8 -9 4 3 -10z"/>
<path d="M4373 1005 c0 -8 3 -13 5 -10 3 3 12 -1 21 -7 10 -8 9 -4 -3 10 -23
26 -23 26 -23 7z"/>
<path d="M4739 1018 c-5 -18 -6 -38 -1 -34 7 8 12 36 6 36 -2 0 -4 -1 -5 -2z"/>
<path d="M4996 1007 c3 -10 9 -15 12 -12 3 3 0 11 -7 18 -10 9 -11 8 -5 -6z"/>
<path d="M5086 1005 c-11 -8 -15 -15 -9 -15 6 0 16 7 23 15 16 19 11 19 -14 0z"/>
<path d="M5142 1004 c10 -10 20 -16 22 -13 3 3 -5 11 -17 18 -21 13 -21 12 -5
-5z"/>
<path d="M5254 1009 c-3 -6 -2 -15 3 -20 5 -5 9 -1 9 11 0 23 -2 24 -12 9z"/>
<path d="M5494 1009 c-3 -6 -2 -15 3 -20 5 -5 9 -1 9 11 0 23 -2 24 -12 9z"/>
<path d="M5696 1007 c3 -10 9 -15 12 -12 3 3 0 11 -7 18 -10 9 -11 8 -5 -6z"/>
<path d="M5990 1016 c0 -2 8 -10 18 -17 15 -13 16 -12 3 4 -13 16 -21 21 -21
13z"/>
<path d="M6056 1007 c3 -10 9 -15 12 -12 3 3 0 11 -7 18 -10 9 -11 8 -5 -6z"/>
<path d="M3466 1002 c-3 -5 1 -9 9 -9 8 0 12 4 9 9 -3 4 -7 8 -9 8 -2 0 -6 -4
-9 -8z"/>
<path d="M3819 993 c-12 -16 -12 -17 2 -6 9 7 19 10 22 6 4 -3 7 -1 7 5 0 17
-16 15 -31 -5z"/>
<path d="M4239 1003 c0 -5 -2 -16 -4 -26 -2 -11 -1 -16 3 -13 8 8 14 46 7 46
-3 0 -5 -3 -6 -7z"/>
<path d="M4314 998 c-4 -7 -4 -10 1 -6 4 4 15 2 24 -5 14 -11 14 -10 2 6 -16
20 -18 21 -27 5z"/>
<path d="M4793 1003 c4 -3 1 -13 -6 -22 -11 -14 -10 -14 6 -2 20 15 22 31 5
31 -6 0 -8 -3 -5 -7z"/>
<path d="M4973 995 c0 -8 4 -12 9 -9 5 3 6 10 3 15 -9 13 -12 11 -12 -6z"/>
<path d="M5550 1003 c0 -6 8 -17 18 -24 16 -13 16 -13 2 6 -8 11 -16 22 -17
24 -2 2 -3 0 -3 -6z"/>
<path d="M5593 995 c0 -8 4 -12 9 -9 5 3 6 10 3 15 -9 13 -12 11 -12 -6z"/>
<path d="M5656 993 c-6 -14 -5 -15 5 -6 7 7 10 15 7 18 -3 3 -9 -2 -12 -12z"/>
<path d="M5779 993 c-13 -16 -12 -17 3 -5 9 8 23 10 29 6 8 -4 9 -3 5 4 -10
17 -21 15 -37 -5z"/>
<path d="M6090 999 c0 -5 5 -7 10 -4 6 3 10 8 10 11 0 2 -4 4 -10 4 -5 0 -10
-5 -10 -11z"/>
<path d="M6617 995 c-4 -8 -3 -16 1 -19 4 -3 9 4 9 15 2 23 -3 25 -10 4z"/>
<path d="M2895 991 c-3 -5 -2 -12 3 -15 5 -3 9 1 9 9 0 17 -3 19 -12 6z"/>
<path d="M4030 996 c0 -2 8 -10 18 -17 15 -13 16 -12 3 4 -13 16 -21 21 -21
13z"/>
<path d="M2856 982 c-3 -5 1 -9 9 -9 8 0 12 4 9 9 -3 4 -7 8 -9 8 -2 0 -6 -4
-9 -8z"/>
<path d="M3386 982 c-3 -5 1 -9 9 -9 8 0 15 4 15 9 0 4 -4 8 -9 8 -6 0 -12 -4
-15 -8z"/>
<path d="M4839 988 c-6 -20 -6 -39 0 -42 4 -3 7 6 7 20 0 20 -4 32 -7 22z"/>
<path d="M5106 982 c-2 -4 4 -8 14 -8 10 0 16 4 14 8 -3 4 -9 8 -14 8 -5 0
-11 -4 -14 -8z"/>
<path d="M6455 980 c3 -5 8 -10 11 -10 2 0 4 5 4 10 0 6 -5 10 -11 10 -5 0 -7
-4 -4 -10z"/>
<path d="M3110 976 c0 -2 8 -10 18 -17 15 -13 16 -12 3 4 -13 16 -21 21 -21
13z"/>
<path d="M4097 973 c-10 -9 -9 -23 1 -23 5 0 9 7 9 15 0 17 -1 18 -10 8z"/>
<path d="M4373 967 c0 -8 6 -14 14 -14 9 0 10 4 2 14 -6 7 -12 13 -14 13 -1 0
-2 -6 -2 -13z"/>
<path d="M4595 971 c-3 -5 -2 -12 3 -15 5 -3 9 1 9 9 0 17 -3 19 -12 6z"/>
<path d="M5855 969 c-4 -6 -5 -12 -2 -15 2 -3 7 2 10 11 7 17 1 20 -8 4z"/>
<path d="M6235 969 c-4 -6 -5 -12 -2 -15 2 -3 7 2 10 11 7 17 1 20 -8 4z"/>
<path d="M6559 978 c-5 -18 -6 -38 -1 -34 7 8 12 36 6 36 -2 0 -4 -1 -5 -2z"/>
<path d="M2636 958 c3 -5 10 -6 15 -3 13 9 11 12 -6 12 -8 0 -12 -4 -9 -9z"/>
<path d="M3476 953 c-6 -14 -5 -15 5 -6 7 7 10 15 7 18 -3 3 -9 -2 -12 -12z"/>
<path d="M3696 958 c3 -5 10 -6 15 -3 13 9 11 12 -6 12 -8 0 -12 -4 -9 -9z"/>
<path d="M4152 965 c3 -3 16 -8 28 -10 12 -2 20 -1 16 2 -4 4 -16 8 -28 10
-12 2 -19 1 -16 -2z"/>
<path d="M4496 961 c9 -9 34 -9 34 -1 0 5 -9 8 -20 7 -10 -1 -17 -3 -14 -6z"/>
<path d="M4646 962 c-3 -5 1 -9 9 -9 8 0 12 4 9 9 -3 4 -7 8 -9 8 -2 0 -6 -4
-9 -8z"/>
<path d="M4736 962 c-3 -5 1 -9 9 -9 8 0 12 4 9 9 -3 4 -7 8 -9 8 -2 0 -6 -4
-9 -8z"/>
<path d="M4874 948 l-19 -23 23 19 c21 18 27 26 19 26 -2 0 -12 -10 -23 -22z"/>
<path d="M4910 958 c0 -6 3 -8 7 -5 3 4 13 1 22 -6 14 -11 14 -10 2 6 -15 20
-31 22 -31 5z"/>
<path d="M5016 962 c-3 -5 1 -9 9 -9 8 0 12 4 9 9 -3 4 -7 8 -9 8 -2 0 -6 -4
-9 -8z"/>
<path d="M5326 962 c-3 -5 1 -9 9 -9 8 0 12 4 9 9 -3 4 -7 8 -9 8 -2 0 -6 -4
-9 -8z"/>
<path d="M5366 962 c-3 -5 1 -9 9 -9 8 0 12 4 9 9 -3 4 -7 8 -9 8 -2 0 -6 -4
-9 -8z"/>
<path d="M5476 958 c3 -5 10 -6 15 -3 13 9 11 12 -6 12 -8 0 -12 -4 -9 -9z"/>
<path d="M5666 958 c3 -5 10 -6 15 -3 13 9 11 12 -6 12 -8 0 -12 -4 -9 -9z"/>
<path d="M5780 965 c0 -2 6 -8 13 -14 10 -8 14 -7 14 2 0 8 -6 14 -14 14 -7 0
-13 -1 -13 -2z"/>
<path d="M6275 960 c3 -5 8 -10 11 -10 2 0 4 5 4 10 0 6 -5 10 -11 10 -5 0 -7
-4 -4 -10z"/>
<path d="M6379 968 c-5 -18 -6 -38 -1 -34 7 8 12 36 6 36 -2 0 -4 -1 -5 -2z"/>
<path d="M6660 960 c-9 -6 -10 -10 -3 -10 6 0 15 5 18 10 8 12 4 12 -15 0z"/>
<path d="M5513 945 c0 -8 4 -12 9 -9 5 3 6 10 3 15 -9 13 -12 11 -12 -6z"/>
<path d="M2974 942 c4 -3 14 -7 22 -8 9 -1 13 0 10 4 -4 3 -14 7 -22 8 -9 1
-13 0 -10 -4z"/>
<path d="M3753 935 c0 -8 4 -12 9 -9 5 3 6 10 3 15 -9 13 -12 11 -12 -6z"/>
<path d="M4030 938 c0 -4 4 -8 9 -8 6 0 12 4 15 8 3 5 -1 9 -9 9 -8 0 -15 -4
-15 -9z"/>
<path d="M4426 938 c3 -4 9 -8 15 -8 5 0 9 4 9 8 0 5 -7 9 -15 9 -8 0 -12 -4
-9 -9z"/>
<path d="M5227 939 c7 -7 15 -10 18 -7 3 3 -2 9 -12 12 -14 6 -15 5 -6 -5z"/>
<path d="M5436 938 c3 -5 10 -6 15 -3 13 9 11 12 -6 12 -8 0 -12 -4 -9 -9z"/>
<path d="M6015 940 c3 -5 8 -10 11 -10 2 0 4 5 4 10 0 6 -5 10 -11 10 -5 0 -7
-4 -4 -10z"/>
<path d="M6050 940 c0 -5 5 -10 11 -10 5 0 7 5 4 10 -3 6 -8 10 -11 10 -2 0
-4 -4 -4 -10z"/>
<path d="M6090 939 c0 -5 5 -7 10 -4 6 3 10 8 10 11 0 2 -4 4 -10 4 -5 0 -10
-5 -10 -11z"/>
<path d="M6135 940 c3 -5 8 -10 11 -10 2 0 4 5 4 10 0 6 -5 10 -11 10 -5 0 -7
-4 -4 -10z"/>
<path d="M2715 931 c-3 -5 -2 -12 3 -15 5 -3 9 1 9 9 0 17 -3 19 -12 6z"/>
<path d="M4073 925 c0 -8 4 -12 9 -9 5 3 6 10 3 15 -9 13 -12 11 -12 -6z"/>
<path d="M4395 931 c-3 -5 -2 -12 3 -15 5 -3 9 1 9 9 0 17 -3 19 -12 6z"/>
<path d="M2890 926 c0 -2 7 -7 16 -10 8 -3 12 -2 9 4 -6 10 -25 14 -25 6z"/>
<path d="M4270 921 c0 -6 4 -13 10 -16 6 -3 7 1 4 9 -7 18 -14 21 -14 7z"/>
<path d="M4800 920 c-9 -6 -10 -10 -3 -10 6 0 15 5 18 10 8 12 4 12 -15 0z"/>
<path d="M4830 921 c0 -6 4 -13 10 -16 6 -3 7 1 4 9 -7 18 -14 21 -14 7z"/>
<path d="M5636 913 c-6 -14 -5 -15 5 -6 7 7 10 15 7 18 -3 3 -9 -2 -12 -12z"/>
<path d="M6320 920 c-9 -6 -10 -10 -3 -10 6 0 15 5 18 10 8 12 4 12 -15 0z"/>
<path d="M6436 918 c3 -5 10 -6 15 -3 13 9 11 12 -6 12 -8 0 -12 -4 -9 -9z"/>
<path d="M3255 911 c-3 -5 -2 -12 3 -15 5 -3 9 1 9 9 0 17 -3 19 -12 6z"/>
<path d="M6173 905 c0 -8 4 -12 9 -9 5 3 6 10 3 15 -9 13 -12 11 -12 -6z"/>
<path d="M3216 902 c-3 -5 1 -9 9 -9 8 0 12 4 9 9 -3 4 -7 8 -9 8 -2 0 -6 -4
-9 -8z"/>
<path d="M3535 900 c-3 -5 -1 -10 4 -10 6 0 11 5 11 10 0 6 -2 10 -4 10 -3 0
-8 -4 -11 -10z"/>
<path d="M5895 900 c-3 -5 -1 -10 4 -10 6 0 11 5 11 10 0 6 -2 10 -4 10 -3 0
-8 -4 -11 -10z"/>
<path d="M5930 899 c0 -5 5 -7 10 -4 6 3 10 8 10 11 0 2 -4 4 -10 4 -5 0 -10
-5 -10 -11z"/>
<path d="M6010 899 c0 -5 5 -7 10 -4 6 3 10 8 10 11 0 2 -4 4 -10 4 -5 0 -10
-5 -10 -11z"/>
<path d="M6054 898 c-4 -7 -4 -10 1 -6 4 4 15 2 24 -5 14 -11 14 -10 2 6 -16
20 -18 21 -27 5z"/>
<path d="M6134 896 c1 -8 5 -18 8 -22 4 -3 5 1 4 10 -1 8 -5 18 -8 22 -4 3 -5
-1 -4 -10z"/>
<path d="M6375 901 c-3 -5 -2 -12 3 -15 5 -3 9 1 9 9 0 17 -3 19 -12 6z"/>
<path d="M4069 883 c-13 -16 -12 -17 4 -4 9 7 17 15 17 17 0 8 -8 3 -21 -13z"/>
<path d="M3055 880 c3 -5 8 -10 11 -10 2 0 4 5 4 10 0 6 -5 10 -11 10 -5 0 -7
-4 -4 -10z"/>
<path d="M3313 875 c0 -8 4 -12 9 -9 5 3 6 10 3 15 -9 13 -12 11 -12 -6z"/>
<path d="M3374 876 c1 -8 5 -18 8 -22 4 -3 5 1 4 10 -1 8 -5 18 -8 22 -4 3 -5
-1 -4 -10z"/>
<path d="M5195 880 c-3 -5 -1 -10 4 -10 6 0 11 5 11 10 0 6 -2 10 -4 10 -3 0
-8 -4 -11 -10z"/>
<path d="M6410 886 c0 -2 7 -7 16 -10 8 -3 12 -2 9 4 -6 10 -25 14 -25 6z"/>
<path d="M3166 862 c-3 -5 1 -9 9 -9 8 0 12 4 9 9 -3 4 -7 8 -9 8 -2 0 -6 -4
-9 -8z"/>
<path d="M3530 860 c0 -5 5 -10 11 -10 5 0 7 5 4 10 -3 6 -8 10 -11 10 -2 0
-4 -4 -4 -10z"/>
<path d="M3576 858 c3 -5 10 -6 15 -3 13 9 11 12 -6 12 -8 0 -12 -4 -9 -9z"/>
<path d="M3615 860 c-3 -5 -1 -10 4 -10 6 0 11 5 11 10 0 6 -2 10 -4 10 -3 0
-8 -4 -11 -10z"/>
<path d="M3815 860 c-3 -5 -1 -10 4 -10 6 0 11 5 11 10 0 6 -2 10 -4 10 -3 0
-8 -4 -11 -10z"/>
<path d="M5050 860 c0 -5 5 -10 11 -10 5 0 7 5 4 10 -3 6 -8 10 -11 10 -2 0
-4 -4 -4 -10z"/>
<path d="M5130 859 c0 -5 5 -7 10 -4 6 3 10 8 10 11 0 2 -4 4 -10 4 -5 0 -10
-5 -10 -11z"/>
<path d="M5370 860 c0 -5 5 -10 11 -10 5 0 7 5 4 10 -3 6 -8 10 -11 10 -2 0
-4 -4 -4 -10z"/>
<path d="M5730 859 c0 -5 5 -7 10 -4 6 3 10 8 10 11 0 2 -4 4 -10 4 -5 0 -10
-5 -10 -11z"/>
<path d="M3850 840 c0 -5 5 -10 11 -10 5 0 7 5 4 10 -3 6 -8 10 -11 10 -2 0
-4 -4 -4 -10z"/>
<path d="M4134 836 c1 -8 5 -18 8 -22 4 -3 5 1 4 10 -1 8 -5 18 -8 22 -4 3 -5
-1 -4 -10z"/>
<path d="M5414 836 c1 -8 5 -18 8 -22 4 -3 5 1 4 10 -1 8 -5 18 -8 22 -4 3 -5
-1 -4 -10z"/>
<path d="M5690 840 c0 -5 5 -10 11 -10 5 0 7 5 4 10 -3 6 -8 10 -11 10 -2 0
-4 -4 -4 -10z"/>
<path d="M3695 831 c-3 -5 -2 -12 3 -15 5 -3 9 1 9 9 0 17 -3 19 -12 6z"/>
<path d="M3975 831 c-3 -5 -2 -12 3 -15 5 -3 9 1 9 9 0 17 -3 19 -12 6z"/>
<path d="M4535 831 c-3 -5 -2 -12 3 -15 5 -3 9 1 9 9 0 17 -3 19 -12 6z"/>
<path d="M3453 815 c0 -8 4 -12 9 -9 5 3 6 10 3 15 -9 13 -12 11 -12 -6z"/>
<path d="M4179 828 c-5 -18 -6 -38 -1 -34 7 8 12 36 6 36 -2 0 -4 -1 -5 -2z"/>
<path d="M4299 828 c-5 -18 -6 -38 -1 -34 7 8 12 36 6 36 -2 0 -4 -1 -5 -2z"/>
<path d="M4739 828 c-5 -18 -6 -38 -1 -34 7 8 12 36 6 36 -2 0 -4 -1 -5 -2z"/>
<path d="M4895 819 c-3 -4 2 -6 10 -5 21 3 28 13 10 13 -9 0 -18 -4 -20 -8z"/>
<path d="M5050 825 c0 -7 30 -13 34 -7 3 4 -4 9 -15 9 -10 1 -19 0 -19 -2z"/>
<path d="M5215 819 c-3 -4 2 -6 10 -5 21 3 28 13 10 13 -9 0 -18 -4 -20 -8z"/>
<path d="M5315 820 c-3 -5 -1 -10 4 -10 6 0 11 5 11 10 0 6 -2 10 -4 10 -3 0
-8 -4 -11 -10z"/>
<path d="M5459 828 c-5 -18 -6 -38 -1 -34 7 8 12 36 6 36 -2 0 -4 -1 -5 -2z"/>
<path d="M5539 828 c-5 -18 -6 -38 -1 -34 7 8 12 36 6 36 -2 0 -4 -1 -5 -2z"/>
<path d="M5151 793 c7 -12 15 -20 18 -17 3 2 -3 12 -13 22 -17 16 -18 16 -5
-5z"/>
<path d="M3716 787 c3 -10 9 -15 12 -12 3 3 0 11 -7 18 -10 9 -11 8 -5 -6z"/>
<path d="M2915 769 c-4 -6 -5 -12 -2 -15 2 -3 7 2 10 11 7 17 1 20 -8 4z"/>
<path d="M4556 758 c3 -5 10 -6 15 -3 13 9 11 12 -6 12 -8 0 -12 -4 -9 -9z"/>
<path d="M4925 760 c-3 -6 1 -7 9 -4 18 7 21 14 7 14 -6 0 -13 -4 -16 -10z"/>
<path d="M5085 760 c-3 -6 1 -7 9 -4 18 7 21 14 7 14 -6 0 -13 -4 -16 -10z"/>
<path d="M6910 759 c0 -5 5 -7 10 -4 6 3 10 8 10 11 0 2 -4 4 -10 4 -5 0 -10
-5 -10 -11z"/>
<path d="M4596 678 c3 -5 10 -6 15 -3 13 9 11 12 -6 12 -8 0 -12 -4 -9 -9z"/>
<path d="M4707 679 c7 -7 15 -10 18 -7 3 3 -2 9 -12 12 -14 6 -15 5 -6 -5z"/>
<path d="M5150 681 c0 -6 4 -13 10 -16 6 -3 7 1 4 9 -7 18 -14 21 -14 7z"/>
<path d="M4229 643 c-13 -16 -12 -17 4 -4 16 13 21 21 13 21 -2 0 -10 -8 -17
-17z"/>
<path d="M3180 606 c0 -2 8 -10 18 -17 15 -13 16 -12 3 4 -13 16 -21 21 -21
13z"/>
</g>
</svg>
