<svg width="520" height="389" viewBox="0 0 520 389" fill="none" xmlns="http://www.w3.org/2000/svg">
<line x1="87.7168" y1="122.744" x2="356.717" y2="16.7437" stroke="#999999" stroke-width="7"/>
<line x1="87.7795" y1="98.9037" x2="296.654" y2="16.5838" stroke="#999999" stroke-width="7"/>
<line x1="338" y1="22.5" x2="214" y2="22.5" stroke="#999999" stroke-width="5"/>
<rect x="70" y="76" width="358" height="100" fill="#393939"/>
<rect width="358" height="20" fill="#393939"/>
<line x1="0.5" y1="-0.5" x2="18.0163" y2="-0.5" transform="matrix(0.705449 0.70876 0.822025 -0.569451 366.291 23.5645)" stroke="#393939" stroke-linecap="round" stroke-linejoin="bevel"/>
<line x1="0.5" y1="-0.5" x2="18.0163" y2="-0.5" transform="matrix(0.994574 -0.104031 0.277739 0.960657 366.133 24.0071)" stroke="#393939" stroke-linecap="round" stroke-linejoin="bevel"/>
<path d="M365.614 23.4821C403.114 28.9821 415.114 38.9821 419.614 71.4821" stroke="#393939"/>
<rect x="123" y="236" width="56" height="136" fill="#393939"/>
<rect x="115" y="176" width="72" height="136" fill="#999999"/>
<rect x="318" y="236" width="56" height="136" fill="#393939"/>
<rect x="310" y="176" width="72" height="136" fill="#999999"/>
<rect x="78" y="366" width="342" height="23" fill="#393939"/>
<line x1="252.864" y1="310.071" x2="252.864" y2="254" stroke="#393939"/>
<line x1="0.5" y1="-0.5" x2="25.2468" y2="-0.5" transform="matrix(0.4802 0.877159 -0.846966 0.531647 252.636 254)" stroke="#393939" stroke-linecap="round" stroke-linejoin="bevel"/>
<line x1="0.5" y1="-0.5" x2="25.2468" y2="-0.5" transform="matrix(-0.4802 0.877159 0.846966 0.531647 253.364 254)" stroke="#393939" stroke-linecap="round" stroke-linejoin="bevel"/>
<line y1="-0.5" x2="56.0708" y2="-0.5" transform="matrix(0 1 1 0 253.364 285.929)" stroke="#393939"/>
<line x1="0.5" y1="-0.5" x2="25.2468" y2="-0.5" transform="matrix(0.4802 -0.877159 -0.846966 -0.531647 252.636 342)" stroke="#393939" stroke-linecap="round" stroke-linejoin="bevel"/>
<line x1="0.5" y1="-0.5" x2="25.2468" y2="-0.5" transform="matrix(-0.4802 -0.877159 0.846966 -0.531647 253.364 342)" stroke="#393939" stroke-linecap="round" stroke-linejoin="bevel"/>
<path d="M471.811 77.9183C471.577 77.9916 471.328 78.002 471.089 77.9482C470.85 77.8945 470.629 77.7786 470.449 77.6122C470.269 77.4458 470.136 77.2347 470.063 77.0003C469.99 76.7659 469.98 76.5165 470.034 76.277C470.846 72.8959 473.93 64.6272 485.167 61.1494C490.034 59.643 494.702 59.6173 499.035 61.0724C502.599 62.2646 504.966 64.1302 506.097 65.0319C506.385 65.2599 506.57 65.593 506.613 65.9579C506.655 66.3229 506.551 66.6898 506.324 66.9779C506.321 66.9815 506.318 66.985 506.315 66.9886C506.082 67.2776 505.744 67.4631 505.375 67.505C505.006 67.547 504.636 67.4421 504.343 67.2128C502.293 65.5939 496.069 60.6756 485.983 63.7973C476.134 66.8455 473.459 73.9755 472.765 76.8926C472.712 77.1335 472.596 77.3559 472.428 77.5363C472.26 77.7168 472.047 77.8487 471.811 77.9183L471.811 77.9183Z" fill="#393939"/>
<path d="M502.437 97.0692C502.326 97.1053 502.21 97.1271 502.093 97.1341C493.314 97.6078 487.729 90.3009 487.5 89.9962L487.457 89.9259C487.317 89.7084 483.938 84.5568 485.426 80.4654C486.109 78.5949 487.62 77.282 489.931 76.5671C492.079 75.9021 493.837 76.0988 495.333 77.1694C496.56 78.0416 497.347 79.3425 498.109 80.5986C499.694 83.2068 500.666 84.5337 503.679 83.7681C505.002 83.4317 505.619 82.3954 505.901 81.5881C506.661 79.3915 505.988 76.3967 504.206 74.131C501.905 71.1916 495.463 66.3095 487.516 68.7692C484.122 69.8196 481.345 71.8896 479.485 74.7398C477.944 77.1052 477.048 80.043 477.028 82.7827C476.997 87.8839 481.17 94.5951 481.21 94.6559C481.306 94.8098 481.371 94.9812 481.401 95.1603C481.431 95.3394 481.425 95.5227 481.384 95.6996C481.344 95.8765 481.268 96.0437 481.163 96.1916C481.058 96.3394 480.925 96.4651 480.771 96.5613C480.767 96.564 480.763 96.5667 480.758 96.5693C480.443 96.766 480.064 96.8308 479.702 96.7496C479.34 96.6684 479.024 96.4478 478.823 96.1353C478.635 95.8285 474.179 88.6727 474.215 82.777C474.265 76.3866 478.141 68.7598 486.697 66.1118C490.651 64.8878 494.807 65.0935 498.718 66.7001C501.75 67.953 504.555 70.027 506.41 72.3952C508.779 75.4181 509.614 79.375 508.535 82.4632C507.816 84.5221 506.328 85.9427 504.349 86.4506C499.194 87.7646 497.174 84.4563 495.701 82.0429C494.188 79.5688 493.352 78.4087 490.737 79.2179C489.302 79.6622 488.418 80.3741 488.046 81.3969C487.54 82.7952 488.019 84.5874 488.511 85.8438C488.516 85.8569 488.521 85.87 488.526 85.8831C489.156 87.4801 490.14 88.9131 491.402 90.0743C493.425 91.9457 497.18 94.6137 501.965 94.3564C502.331 94.3337 502.691 94.4574 502.966 94.7005C503.241 94.9436 503.408 95.2861 503.431 95.6527C503.431 95.6571 503.431 95.6616 503.431 95.666C503.443 95.9768 503.351 96.2827 503.172 96.5363C502.992 96.79 502.734 96.9773 502.437 97.0692L502.437 97.0692Z" fill="#393939"/>
<path d="M491.792 99.6962C491.609 99.7529 491.417 99.7719 491.226 99.7519C491.036 99.732 490.851 99.6736 490.684 99.5801C486.354 97.1223 483.315 93.8166 481.126 89.1832L481.117 89.1547C479.738 86.0654 478.907 81.3456 480.739 77.3564C482.091 74.413 484.63 72.344 488.271 71.2171C492.577 69.8843 496.587 70.8656 499.878 74.0414C501.374 75.5071 502.592 77.2342 503.469 79.1378C503.609 79.4803 503.609 79.8642 503.469 80.2065C503.328 80.5488 503.059 80.822 502.719 80.9669C502.379 81.1119 501.996 81.117 501.653 80.9811C501.309 80.8452 501.033 80.5793 500.883 80.2408C500.14 78.652 499.114 77.2124 497.855 75.9925C495.318 73.5744 492.37 72.8595 489.08 73.8775C486.238 74.7572 484.281 76.3125 483.279 78.5006C481.834 81.6502 482.578 85.583 483.657 88.0033C485.587 92.1012 488.264 95.0079 492.075 97.1673C492.232 97.2562 492.371 97.3754 492.482 97.5179C492.593 97.6604 492.676 97.8236 492.724 97.998C492.773 98.1724 492.787 98.3547 492.765 98.5344C492.743 98.7142 492.686 98.8879 492.597 99.0456C492.594 99.0518 492.59 99.0581 492.587 99.0643C492.409 99.3663 492.126 99.5915 491.792 99.6962V99.6962Z" fill="#393939"/>
<path d="M492.248 85.845C493.237 85.845 494.039 85.0416 494.039 84.0506C494.039 83.0596 493.237 82.2562 492.248 82.2562C491.259 82.2562 490.457 83.0596 490.457 84.0506C490.457 85.0416 491.259 85.845 492.248 85.845Z" fill="#E6E6E6"/>
<rect x="428" y="93" width="12" height="52" fill="#999999"/>
<circle cx="490" cy="80" r="29.5" stroke="#393939"/>
<line x1="439.736" y1="118.575" x2="468.736" y2="100.575" stroke="#393939"/>
</svg>
